{
	"patcher" : 	{
		"fileversion" : 1,
		"appversion" : 		{
			"major" : 8,
			"minor" : 6,
			"revision" : 0,
			"architecture" : "x64",
			"modernui" : 1
		}
,
		"classnamespace" : "box",
		"rect" : [ 1546.0, 30.0, 2492.0, 1267.0 ],
		"bglocked" : 0,
		"openinpresentation" : 0,
		"default_fontsize" : 12.0,
		"default_fontface" : 0,
		"default_fontname" : "Arial",
		"gridonopen" : 1,
		"gridsize" : [ 15.0, 15.0 ],
		"gridsnaponopen" : 1,
		"objectsnaponopen" : 1,
		"statusbarvisible" : 2,
		"toolbarvisible" : 1,
		"lefttoolbarpinned" : 0,
		"toptoolbarpinned" : 0,
		"righttoolbarpinned" : 0,
		"bottomtoolbarpinned" : 0,
		"toolbars_unpinned_last_save" : 0,
		"tallnewobj" : 0,
		"boxanimatetime" : 200,
		"enablehscroll" : 1,
		"enablevscroll" : 1,
		"devicewidth" : 0.0,
		"description" : "",
		"digest" : "",
		"tags" : "",
		"style" : "",
		"subpatcher_template" : "",
		"assistshowspatchername" : 0,
		"boxes" : [ 			{
				"box" : 				{
					"fontname" : "Arial",
					"fontsize" : 13.0,
					"id" : "obj-5",
					"maxclass" : "comment",
					"numinlets" : 1,
					"numoutlets" : 0,
					"patching_rect" : [ 1148.0, 1369.0, 583.0, 21.0 ],
					"text" : "Change the brightness/contrast/saturation of a video.",
					"textcolor" : [ 0.200000002980232, 0.200000002980232, 0.200000002980232, 1.0 ],
					"varname" : "autohelp_top_digest"
				}

			}
, 			{
				"box" : 				{
					"id" : "obj-88",
					"maxclass" : "comment",
					"numinlets" : 1,
					"numoutlets" : 0,
					"patching_rect" : [ 530.0, 602.0, 150.0, 20.0 ],
					"text" : "light level"
				}

			}
, 			{
				"box" : 				{
					"id" : "obj-86",
					"maxclass" : "comment",
					"numinlets" : 1,
					"numoutlets" : 0,
					"patching_rect" : [ 1044.0, 37.0, 150.0, 20.0 ],
					"text" : "Pitch"
				}

			}
, 			{
				"box" : 				{
					"id" : "obj-73",
					"maxclass" : "comment",
					"numinlets" : 1,
					"numoutlets" : 0,
					"patching_rect" : [ 906.0, 34.0, 150.0, 20.0 ],
					"text" : "change"
				}

			}
, 			{
				"box" : 				{
					"id" : "obj-53",
					"maxclass" : "comment",
					"numinlets" : 1,
					"numoutlets" : 0,
					"patching_rect" : [ 1118.0, 16.0, 150.0, 20.0 ],
					"text" : "reset speed"
				}

			}
, 			{
				"box" : 				{
					"id" : "obj-26",
					"linecount" : 2,
					"maxclass" : "comment",
					"numinlets" : 1,
					"numoutlets" : 0,
					"patching_rect" : [ 111.5, 19.5, 150.0, 33.0 ],
					"text" : "Toggle \nController"
				}

			}
, 			{
				"box" : 				{
					"id" : "obj-8",
					"maxclass" : "comment",
					"numinlets" : 1,
					"numoutlets" : 0,
					"patching_rect" : [ 582.906828999519348, 250.0, 150.0, 20.0 ],
					"text" : "play"
				}

			}
, 			{
				"box" : 				{
					"bubble" : 1,
					"bubbleside" : 0,
					"fontface" : 1,
					"fontsize" : 14.0,
					"id" : "obj-85",
					"maxclass" : "comment",
					"numinlets" : 1,
					"numoutlets" : 0,
					"patching_rect" : [ 592.0, 1202.263968944549561, 185.0, 41.0 ],
					"presentation" : 1,
					"presentation_rect" : [ 154.0, 502.0, 65.0, 41.0 ],
					"text" : "Volume"
				}

			}
, 			{
				"box" : 				{
					"bubble" : 1,
					"bubbleside" : 0,
					"fontface" : 1,
					"fontsize" : 14.0,
					"id" : "obj-82",
					"maxclass" : "comment",
					"numinlets" : 1,
					"numoutlets" : 0,
					"patching_rect" : [ 402.888195872306824, 1147.0, 185.0, 41.0 ],
					"presentation" : 1,
					"presentation_rect" : [ 73.0, 502.0, 65.0, 41.0 ],
					"text" : "Turn ON"
				}

			}
, 			{
				"box" : 				{
					"bubble" : 1,
					"bubbleside" : 0,
					"fontface" : 1,
					"fontsize" : 14.0,
					"id" : "obj-81",
					"linecount" : 3,
					"maxclass" : "comment",
					"numinlets" : 1,
					"numoutlets" : 0,
					"patching_rect" : [ 549.5, 1269.0, 185.0, 72.0 ],
					"presentation" : 1,
					"presentation_linecount" : 4,
					"presentation_rect" : [ 660.0, 447.0, 44.0, 88.0 ],
					"text" : "set\nhigh\nlight level"
				}

			}
, 			{
				"box" : 				{
					"bubble" : 1,
					"bubbleside" : 0,
					"fontface" : 1,
					"fontsize" : 14.0,
					"id" : "obj-80",
					"linecount" : 3,
					"maxclass" : "comment",
					"numinlets" : 1,
					"numoutlets" : 0,
					"patching_rect" : [ 334.0, 1269.0, 185.0, 72.0 ],
					"presentation" : 1,
					"presentation_linecount" : 4,
					"presentation_rect" : [ 588.0, 451.0, 46.0, 88.0 ],
					"text" : "set\nlow\nlevel level"
				}

			}
, 			{
				"box" : 				{
					"bubble" : 1,
					"bubbleside" : 0,
					"fontface" : 1,
					"fontsize" : 14.0,
					"id" : "obj-79",
					"maxclass" : "comment",
					"numinlets" : 1,
					"numoutlets" : 0,
					"patching_rect" : [ 397.0, 1201.863347589969635, 185.0, 41.0 ],
					"presentation" : 1,
					"presentation_linecount" : 2,
					"presentation_rect" : [ 509.0, 451.0, 44.0, 57.0 ],
					"text" : "light level"
				}

			}
, 			{
				"box" : 				{
					"bubble" : 1,
					"bubbleside" : 0,
					"fontface" : 1,
					"fontsize" : 14.0,
					"id" : "obj-77",
					"maxclass" : "comment",
					"numinlets" : 1,
					"numoutlets" : 0,
					"patching_rect" : [ 604.0, 1151.0, 185.0, 41.0 ],
					"presentation" : 1,
					"presentation_linecount" : 2,
					"presentation_rect" : [ 439.0, 454.0, 59.0, 57.0 ],
					"text" : "light flanger"
				}

			}
, 			{
				"box" : 				{
					"id" : "obj-76",
					"maxclass" : "number",
					"maximum" : 1023,
					"minimum" : 0,
					"numinlets" : 1,
					"numoutlets" : 2,
					"outlettype" : [ "", "bang" ],
					"parameter_enable" : 0,
					"patching_rect" : [ 617.0, 504.0, 50.0, 22.0 ],
					"presentation" : 1,
					"presentation_rect" : [ 657.0, 425.0, 50.0, 22.0 ]
				}

			}
, 			{
				"box" : 				{
					"id" : "obj-75",
					"maxclass" : "number",
					"maximum" : 1023,
					"minimum" : 0,
					"numinlets" : 1,
					"numoutlets" : 2,
					"outlettype" : [ "", "bang" ],
					"parameter_enable" : 0,
					"patching_rect" : [ 562.0, 504.0, 50.0, 22.0 ],
					"presentation" : 1,
					"presentation_rect" : [ 588.0, 425.0, 50.0, 22.0 ]
				}

			}
, 			{
				"box" : 				{
					"id" : "obj-69",
					"maxclass" : "newobj",
					"numinlets" : 6,
					"numoutlets" : 1,
					"outlettype" : [ "" ],
					"patching_rect" : [ 162.5, 728.0, 77.0, 22.0 ],
					"text" : "scale 0 1 1 0"
				}

			}
, 			{
				"box" : 				{
					"id" : "obj-68",
					"maxclass" : "toggle",
					"numinlets" : 1,
					"numoutlets" : 1,
					"outlettype" : [ "int" ],
					"parameter_enable" : 0,
					"patching_rect" : [ 161.878881990909576, 688.869565427303314, 24.0, 24.0 ],
					"presentation" : 1,
					"presentation_rect" : [ 456.0, 424.0, 24.0, 24.0 ]
				}

			}
, 			{
				"box" : 				{
					"id" : "obj-65",
					"maxclass" : "newobj",
					"numinlets" : 1,
					"numoutlets" : 1,
					"outlettype" : [ "" ],
					"patching_rect" : [ 161.878881990909576, 765.888198554515839, 175.0, 22.0 ],
					"text" : "pattrforward bp.Flanger:bypass"
				}

			}
, 			{
				"box" : 				{
					"bubble" : 1,
					"bubbleside" : 0,
					"fontface" : 1,
					"fontsize" : 14.0,
					"id" : "obj-63",
					"maxclass" : "comment",
					"numinlets" : 1,
					"numoutlets" : 0,
					"patching_rect" : [ 100.0, 1325.0, 185.0, 41.0 ],
					"presentation" : 1,
					"presentation_rect" : [ 352.0, 394.0, 85.0, 41.0 ],
					"text" : "Loop End"
				}

			}
, 			{
				"box" : 				{
					"bubble" : 1,
					"bubbleside" : 0,
					"fontface" : 1,
					"fontsize" : 14.0,
					"id" : "obj-57",
					"maxclass" : "comment",
					"numinlets" : 1,
					"numoutlets" : 0,
					"patching_rect" : [ 170.0, 1097.0, 185.0, 41.0 ],
					"presentation" : 1,
					"presentation_rect" : [ 229.0, 398.0, 85.0, 41.0 ],
					"text" : "Loop Start "
				}

			}
, 			{
				"box" : 				{
					"bubble" : 1,
					"bubbleside" : 3,
					"fontface" : 1,
					"fontsize" : 14.0,
					"id" : "obj-56",
					"linecount" : 2,
					"maxclass" : "comment",
					"numinlets" : 1,
					"numoutlets" : 0,
					"patching_rect" : [ 112.0, 1269.0, 185.0, 42.0 ],
					"presentation" : 1,
					"presentation_linecount" : 2,
					"presentation_rect" : [ 10.0, 334.0, 98.0, 42.0 ],
					"text" : "Toggle \nController"
				}

			}
, 			{
				"box" : 				{
					"bubble" : 1,
					"bubbleside" : 3,
					"fontface" : 1,
					"fontsize" : 14.0,
					"id" : "obj-54",
					"maxclass" : "comment",
					"numinlets" : 1,
					"numoutlets" : 0,
					"patching_rect" : [ 40.0, 998.5, 185.0, 26.0 ],
					"presentation" : 1,
					"presentation_rect" : [ 31.0, 211.0, 67.0, 26.0 ],
					"text" : "Play"
				}

			}
, 			{
				"box" : 				{
					"bubble" : 1,
					"bubbleside" : 2,
					"fontface" : 1,
					"fontsize" : 14.0,
					"id" : "obj-45",
					"maxclass" : "comment",
					"numinlets" : 1,
					"numoutlets" : 0,
					"patching_rect" : [ 397.0, 1080.124217808246613, 185.0, 41.0 ],
					"presentation" : 1,
					"presentation_rect" : [ 351.0, 10.0, 81.0, 41.0 ],
					"text" : "pitch shift"
				}

			}
, 			{
				"box" : 				{
					"bubble" : 1,
					"bubbleside" : 2,
					"fontface" : 1,
					"fontsize" : 14.0,
					"id" : "obj-29",
					"maxclass" : "comment",
					"numinlets" : 1,
					"numoutlets" : 0,
					"patching_rect" : [ 128.571427881717682, 1201.863347589969635, 185.0, 41.0 ],
					"presentation" : 1,
					"presentation_rect" : [ 232.0, 10.0, 86.0, 41.0 ],
					"text" : "speed shift"
				}

			}
, 			{
				"box" : 				{
					"bubble" : 1,
					"bubbleside" : 2,
					"fontface" : 1,
					"fontsize" : 14.0,
					"id" : "obj-64",
					"maxclass" : "comment",
					"numinlets" : 1,
					"numoutlets" : 0,
					"patching_rect" : [ 296.0, 991.0, 185.0, 41.0 ],
					"presentation" : 1,
					"presentation_rect" : [ 97.0, 10.0, 108.0, 41.0 ],
					"text" : "normal speed"
				}

			}
, 			{
				"box" : 				{
					"floatoutput" : 1,
					"id" : "obj-58",
					"maxclass" : "dial",
					"numinlets" : 1,
					"numoutlets" : 1,
					"outlettype" : [ "float" ],
					"parameter_enable" : 0,
					"patching_rect" : [ 678.881983935832977, 48.0, 40.0, 40.0 ],
					"presentation" : 1,
					"presentation_rect" : [ 330.0, 294.0, 129.0, 129.0 ],
					"size" : 1.0
				}

			}
, 			{
				"box" : 				{
					"floatoutput" : 1,
					"id" : "obj-55",
					"maxclass" : "dial",
					"numinlets" : 1,
					"numoutlets" : 1,
					"outlettype" : [ "float" ],
					"parameter_enable" : 0,
					"patching_rect" : [ 614.906828999519348, 51.105590045452118, 40.0, 40.0 ],
					"presentation" : 1,
					"presentation_rect" : [ 207.0, 294.0, 129.0, 129.0 ],
					"size" : 1.0
				}

			}
, 			{
				"box" : 				{
					"id" : "obj-25",
					"maxclass" : "message",
					"numinlets" : 2,
					"numoutlets" : 1,
					"outlettype" : [ "" ],
					"patching_rect" : [ 1423.0, 486.0, 216.0, 22.0 ],
					"text" : "read ../media/adele-rolling-vid-edit.mov"
				}

			}
, 			{
				"box" : 				{
					"id" : "obj-22",
					"maxclass" : "newobj",
					"numinlets" : 1,
					"numoutlets" : 1,
					"outlettype" : [ "bang" ],
					"patching_rect" : [ 1423.0, 439.0, 58.0, 22.0 ],
					"text" : "loadbang"
				}

			}
, 			{
				"box" : 				{
					"id" : "obj-12",
					"maxclass" : "button",
					"numinlets" : 1,
					"numoutlets" : 1,
					"outlettype" : [ "bang" ],
					"parameter_enable" : 0,
					"patching_rect" : [ 1088.0, 14.0, 24.0, 24.0 ],
					"presentation" : 1,
					"presentation_rect" : [ 84.0, 33.0, 134.0, 134.0 ]
				}

			}
, 			{
				"box" : 				{
					"id" : "obj-9",
					"maxclass" : "button",
					"numinlets" : 1,
					"numoutlets" : 1,
					"outlettype" : [ "bang" ],
					"parameter_enable" : 0,
					"patching_rect" : [ 621.0, 240.0, 24.0, 24.0 ],
					"presentation" : 1,
					"presentation_rect" : [ 83.0, 163.0, 129.0, 129.0 ]
				}

			}
, 			{
				"box" : 				{
					"id" : "obj-144",
					"maxclass" : "newobj",
					"numinlets" : 2,
					"numoutlets" : 2,
					"outlettype" : [ "bang", "" ],
					"patching_rect" : [ 208.0, 607.0, 50.0, 22.0 ],
					"text" : "select 1"
				}

			}
, 			{
				"box" : 				{
					"id" : "obj-138",
					"maxclass" : "number",
					"numinlets" : 1,
					"numoutlets" : 2,
					"outlettype" : [ "", "bang" ],
					"parameter_enable" : 0,
					"patching_rect" : [ 208.0, 558.0, 50.0, 22.0 ]
				}

			}
, 			{
				"box" : 				{
					"id" : "obj-134",
					"maxclass" : "newobj",
					"numinlets" : 6,
					"numoutlets" : 1,
					"outlettype" : [ "" ],
					"patching_rect" : [ 288.0, 538.0, 103.0, 22.0 ],
					"text" : "scale 0 1023 0. 1."
				}

			}
, 			{
				"box" : 				{
					"id" : "obj-133",
					"maxclass" : "newobj",
					"numinlets" : 6,
					"numoutlets" : 1,
					"outlettype" : [ "" ],
					"patching_rect" : [ 416.0, 538.0, 103.0, 22.0 ],
					"text" : "scale 0 1023 0. 1."
				}

			}
, 			{
				"box" : 				{
					"id" : "obj-132",
					"maxclass" : "comment",
					"numinlets" : 1,
					"numoutlets" : 0,
					"patching_rect" : [ 604.0, 467.5, 76.0, 20.0 ],
					"text" : "light sensor"
				}

			}
, 			{
				"box" : 				{
					"id" : "obj-130",
					"maxclass" : "comment",
					"numinlets" : 1,
					"numoutlets" : 0,
					"patching_rect" : [ 432.0, 462.0, 50.0, 20.0 ],
					"text" : "knob 2"
				}

			}
, 			{
				"box" : 				{
					"id" : "obj-129",
					"maxclass" : "comment",
					"numinlets" : 1,
					"numoutlets" : 0,
					"patching_rect" : [ 296.0, 462.0, 50.0, 20.0 ],
					"text" : "knob 1"
				}

			}
, 			{
				"box" : 				{
					"format" : 6,
					"id" : "obj-101",
					"maxclass" : "flonum",
					"numinlets" : 1,
					"numoutlets" : 2,
					"outlettype" : [ "", "bang" ],
					"parameter_enable" : 0,
					"patching_rect" : [ 584.0, 732.0, 50.0, 22.0 ]
				}

			}
, 			{
				"box" : 				{
					"id" : "obj-102",
					"maxclass" : "newobj",
					"numinlets" : 6,
					"numoutlets" : 1,
					"outlettype" : [ "" ],
					"patching_rect" : [ 584.472046554088593, 625.465835154056549, 103.0, 22.0 ],
					"text" : "scale 0 1023 0. 1."
				}

			}
, 			{
				"box" : 				{
					"id" : "obj-103",
					"maxclass" : "number",
					"numinlets" : 1,
					"numoutlets" : 2,
					"outlettype" : [ "", "bang" ],
					"parameter_enable" : 0,
					"patching_rect" : [ 537.888195872306824, 571.428568363189697, 50.0, 22.0 ],
					"presentation" : 1,
					"presentation_rect" : [ 506.0, 425.0, 50.0, 22.0 ]
				}

			}
, 			{
				"box" : 				{
					"id" : "obj-7",
					"maxclass" : "number",
					"numinlets" : 1,
					"numoutlets" : 2,
					"outlettype" : [ "", "bang" ],
					"parameter_enable" : 0,
					"patching_rect" : [ 420.0, 486.0, 50.0, 22.0 ]
				}

			}
, 			{
				"box" : 				{
					"id" : "obj-104",
					"maxclass" : "number",
					"numinlets" : 1,
					"numoutlets" : 2,
					"outlettype" : [ "", "bang" ],
					"parameter_enable" : 0,
					"patching_rect" : [ 281.0, 496.273289263248444, 50.0, 22.0 ]
				}

			}
, 			{
				"box" : 				{
					"id" : "obj-125",
					"maxclass" : "toggle",
					"numinlets" : 1,
					"numoutlets" : 1,
					"outlettype" : [ "int" ],
					"parameter_enable" : 0,
					"patching_rect" : [ 156.0, 557.0, 24.0, 24.0 ]
				}

			}
, 			{
				"box" : 				{
					"id" : "obj-67",
					"maxclass" : "newobj",
					"numinlets" : 6,
					"numoutlets" : 1,
					"outlettype" : [ "" ],
					"patching_rect" : [ 176.0, 518.0, 77.0, 22.0 ],
					"text" : "scale 0 1 1 0"
				}

			}
, 			{
				"box" : 				{
					"id" : "obj-107",
					"maxclass" : "comment",
					"numinlets" : 1,
					"numoutlets" : 0,
					"patching_rect" : [ 180.0, 462.0, 56.0, 20.0 ],
					"text" : "button 1"
				}

			}
, 			{
				"box" : 				{
					"id" : "obj-109",
					"maxclass" : "number",
					"numinlets" : 1,
					"numoutlets" : 2,
					"outlettype" : [ "", "bang" ],
					"parameter_enable" : 0,
					"patching_rect" : [ 176.0, 486.0, 50.0, 22.0 ]
				}

			}
, 			{
				"box" : 				{
					"id" : "obj-110",
					"maxclass" : "newobj",
					"numinlets" : 1,
					"numoutlets" : 4,
					"outlettype" : [ "int", "int", "int", "int" ],
					"patching_rect" : [ 148.0, 431.055898308753967, 409.0, 22.0 ],
					"text" : "unpack i i i i"
				}

			}
, 			{
				"box" : 				{
					"id" : "obj-111",
					"maxclass" : "message",
					"numinlets" : 2,
					"numoutlets" : 1,
					"outlettype" : [ "" ],
					"patching_rect" : [ 32.0, 398.0, 89.0, 22.0 ],
					"text" : "1 265 799 66"
				}

			}
, 			{
				"box" : 				{
					"id" : "obj-30",
					"maxclass" : "message",
					"numinlets" : 2,
					"numoutlets" : 1,
					"outlettype" : [ "" ],
					"patching_rect" : [ 36.0, 346.0, 95.0, 22.0 ],
					"text" : "\"1 265 799 66\""
				}

			}
, 			{
				"box" : 				{
					"id" : "obj-112",
					"maxclass" : "comment",
					"numinlets" : 1,
					"numoutlets" : 0,
					"patching_rect" : [ 228.0, 362.0, 259.0, 20.0 ],
					"text" : "convert symbols into numbers/messages"
				}

			}
, 			{
				"box" : 				{
					"id" : "obj-113",
					"maxclass" : "comment",
					"numinlets" : 1,
					"numoutlets" : 0,
					"patching_rect" : [ 200.0, 314.0, 212.0, 20.0 ],
					"text" : "convert intergers into symbols"
				}

			}
, 			{
				"box" : 				{
					"id" : "obj-114",
					"maxclass" : "comment",
					"numinlets" : 1,
					"numoutlets" : 0,
					"patching_rect" : [ 236.0, 274.0, 251.0, 20.0 ],
					"text" : "group messages together 100 arbitrary/large"
				}

			}
, 			{
				"box" : 				{
					"id" : "obj-115",
					"maxclass" : "comment",
					"numinlets" : 1,
					"numoutlets" : 0,
					"patching_rect" : [ 216.0, 234.0, 212.0, 20.0 ],
					"text" : "look for new line characters"
				}

			}
, 			{
				"box" : 				{
					"id" : "obj-117",
					"maxclass" : "newobj",
					"numinlets" : 1,
					"numoutlets" : 1,
					"outlettype" : [ "" ],
					"patching_rect" : [ 148.0, 358.0, 71.0, 22.0 ],
					"text" : "fromsymbol"
				}

			}
, 			{
				"box" : 				{
					"id" : "obj-33",
					"maxclass" : "newobj",
					"numinlets" : 3,
					"numoutlets" : 1,
					"outlettype" : [ "int" ],
					"patching_rect" : [ 148.0, 314.0, 40.0, 22.0 ],
					"text" : "itoa"
				}

			}
, 			{
				"box" : 				{
					"id" : "obj-32",
					"maxclass" : "newobj",
					"numinlets" : 2,
					"numoutlets" : 2,
					"outlettype" : [ "", "" ],
					"patching_rect" : [ 148.0, 278.0, 75.0, 22.0 ],
					"text" : "zl group 100"
				}

			}
, 			{
				"box" : 				{
					"id" : "obj-118",
					"maxclass" : "newobj",
					"numinlets" : 3,
					"numoutlets" : 3,
					"outlettype" : [ "bang", "bang", "" ],
					"patching_rect" : [ 148.0, 234.0, 57.0, 22.0 ],
					"text" : "sel 13 10"
				}

			}
, 			{
				"box" : 				{
					"id" : "obj-21",
					"maxclass" : "newobj",
					"numinlets" : 2,
					"numoutlets" : 1,
					"outlettype" : [ "bang" ],
					"patching_rect" : [ 68.0, 118.0, 56.0, 22.0 ],
					"text" : "metro 10"
				}

			}
, 			{
				"box" : 				{
					"id" : "obj-119",
					"maxclass" : "message",
					"numinlets" : 2,
					"numoutlets" : 1,
					"outlettype" : [ "" ],
					"patching_rect" : [ 48.0, 202.0, 50.0, 22.0 ],
					"text" : "57"
				}

			}
, 			{
				"box" : 				{
					"id" : "obj-120",
					"maxclass" : "message",
					"numinlets" : 2,
					"numoutlets" : 1,
					"outlettype" : [ "" ],
					"patching_rect" : [ 128.0, 118.0, 39.0, 22.0 ],
					"text" : "port z"
				}

			}
, 			{
				"box" : 				{
					"id" : "obj-121",
					"maxclass" : "newobj",
					"numinlets" : 2,
					"numoutlets" : 2,
					"outlettype" : [ "bang", "" ],
					"patching_rect" : [ 128.0, 70.0, 93.0, 22.0 ],
					"text" : "sel 0"
				}

			}
, 			{
				"box" : 				{
					"id" : "obj-122",
					"maxclass" : "toggle",
					"numinlets" : 1,
					"numoutlets" : 1,
					"outlettype" : [ "int" ],
					"parameter_enable" : 0,
					"patching_rect" : [ 40.0, 7.0, 58.0, 58.0 ],
					"presentation" : 1,
					"presentation_rect" : [ 83.0, 287.0, 136.0, 136.0 ]
				}

			}
, 			{
				"box" : 				{
					"id" : "obj-123",
					"maxclass" : "message",
					"numinlets" : 2,
					"numoutlets" : 1,
					"outlettype" : [ "" ],
					"patching_rect" : [ 204.0, 118.0, 39.0, 22.0 ],
					"text" : "port d"
				}

			}
, 			{
				"box" : 				{
					"id" : "obj-124",
					"maxclass" : "message",
					"numinlets" : 2,
					"numoutlets" : 1,
					"outlettype" : [ "" ],
					"patching_rect" : [ 252.0, 118.0, 32.0, 22.0 ],
					"text" : "print"
				}

			}
, 			{
				"box" : 				{
					"id" : "obj-127",
					"maxclass" : "newobj",
					"numinlets" : 1,
					"numoutlets" : 2,
					"outlettype" : [ "int", "" ],
					"patching_rect" : [ 148.0, 170.0, 77.0, 22.0 ],
					"text" : "serial z 9600"
				}

			}
, 			{
				"box" : 				{
					"id" : "obj-89",
					"maxclass" : "message",
					"numinlets" : 2,
					"numoutlets" : 1,
					"outlettype" : [ "" ],
					"patching_rect" : [ 1088.0, 48.0, 59.0, 22.0 ],
					"text" : "0., 1. 500"
				}

			}
, 			{
				"box" : 				{
					"id" : "obj-84",
					"maxclass" : "newobj",
					"numinlets" : 3,
					"numoutlets" : 2,
					"outlettype" : [ "", "bang" ],
					"patching_rect" : [ 1164.0, 64.0, 41.0, 22.0 ],
					"text" : "line 0."
				}

			}
, 			{
				"box" : 				{
					"id" : "obj-83",
					"maxclass" : "message",
					"numinlets" : 2,
					"numoutlets" : 1,
					"outlettype" : [ "" ],
					"patching_rect" : [ 1284.0, 48.0, 35.0, 22.0 ],
					"text" : "2000"
				}

			}
, 			{
				"box" : 				{
					"annotation" : "## VIZZIE video projector interface ##",
					"bgmode" : 1,
					"border" : 0,
					"clickthrough" : 0,
					"enablehscroll" : 0,
					"enablevscroll" : 0,
					"id" : "obj-78",
					"lockeddragscroll" : 0,
					"lockedsize" : 0,
					"maxclass" : "bpatcher",
					"name" : "vz.projectr.maxpat",
					"numinlets" : 4,
					"numoutlets" : 1,
					"offset" : [ 0.0, 0.0 ],
					"outlettype" : [ "" ],
					"patching_rect" : [ 1843.478250980377197, 1102.124217808246613, 168.0, 108.0 ],
					"presentation" : 1,
					"presentation_rect" : [ 740.0, 425.0, 168.0, 108.0 ],
					"prototypename" : "pixl",
					"varname" : "projectr",
					"viewvisibility" : 1
				}

			}
, 			{
				"box" : 				{
					"annotation" : "## Average VIZZIE input data ##",
					"bgmode" : 1,
					"border" : 0,
					"clickthrough" : 0,
					"enablehscroll" : 0,
					"enablevscroll" : 0,
					"id" : "obj-71",
					"lockeddragscroll" : 0,
					"lockedsize" : 0,
					"maxclass" : "bpatcher",
					"name" : "vz.averagr.maxpat",
					"numinlets" : 2,
					"numoutlets" : 2,
					"offset" : [ 0.0, 0.0 ],
					"outlettype" : [ "", "" ],
					"patching_rect" : [ 1296.27328497171402, 1670.186326444149017, 188.0, 130.0 ],
					"prototypename" : "pixl",
					"varname" : "smoothr[2]",
					"viewvisibility" : 1
				}

			}
, 			{
				"box" : 				{
					"annotation" : "## Fader/UI display for VIZZIE data ##",
					"bgmode" : 1,
					"border" : 0,
					"clickthrough" : 0,
					"enablehscroll" : 0,
					"enablevscroll" : 0,
					"id" : "obj-72",
					"lockeddragscroll" : 0,
					"lockedsize" : 0,
					"maxclass" : "bpatcher",
					"name" : "vz.fadr.maxpat",
					"numinlets" : 1,
					"numoutlets" : 1,
					"offset" : [ 0.0, 0.0 ],
					"outlettype" : [ "" ],
					"patching_rect" : [ 1296.27328497171402, 1831.677008807659149, 84.0, 196.0 ],
					"varname" : "fadr[3]",
					"viewvisibility" : 1
				}

			}
, 			{
				"box" : 				{
					"format" : 6,
					"id" : "obj-70",
					"maxclass" : "flonum",
					"numinlets" : 1,
					"numoutlets" : 2,
					"outlettype" : [ "", "bang" ],
					"parameter_enable" : 0,
					"patching_rect" : [ 1168.0, 132.0, 50.0, 22.0 ]
				}

			}
, 			{
				"box" : 				{
					"annotation" : "## Average VIZZIE input data ##",
					"bgmode" : 1,
					"border" : 0,
					"clickthrough" : 0,
					"enablehscroll" : 0,
					"enablevscroll" : 0,
					"id" : "obj-62",
					"lockeddragscroll" : 0,
					"lockedsize" : 0,
					"maxclass" : "bpatcher",
					"name" : "vz.averagr.maxpat",
					"numinlets" : 2,
					"numoutlets" : 2,
					"offset" : [ 0.0, 0.0 ],
					"outlettype" : [ "", "" ],
					"patching_rect" : [ 1576.0, 1080.124217808246613, 188.0, 130.0 ],
					"prototypename" : "pixl",
					"varname" : "smoothr[1]",
					"viewvisibility" : 1
				}

			}
, 			{
				"box" : 				{
					"id" : "obj-61",
					"maxclass" : "newobj",
					"numinlets" : 6,
					"numoutlets" : 1,
					"outlettype" : [ "" ],
					"patching_rect" : [ 633.0, 838.0, 103.0, 22.0 ],
					"text" : "scale 0. 1. 0 2000"
				}

			}
, 			{
				"box" : 				{
					"id" : "obj-60",
					"maxclass" : "newobj",
					"numinlets" : 1,
					"numoutlets" : 1,
					"outlettype" : [ "" ],
					"patching_rect" : [ 633.0, 907.0, 173.0, 22.0 ],
					"text" : "pattrforward bp.Flanger:Center"
				}

			}
, 			{
				"box" : 				{
					"annotation" : "## Fader/UI display for VIZZIE data ##",
					"bgmode" : 1,
					"border" : 0,
					"clickthrough" : 0,
					"enablehscroll" : 0,
					"enablevscroll" : 0,
					"id" : "obj-59",
					"lockeddragscroll" : 0,
					"lockedsize" : 0,
					"maxclass" : "bpatcher",
					"name" : "vz.fadr.maxpat",
					"numinlets" : 1,
					"numoutlets" : 1,
					"offset" : [ 0.0, 0.0 ],
					"outlettype" : [ "" ],
					"patching_rect" : [ 1582.608687162399292, 1255.900614380836487, 84.0, 196.0 ],
					"varname" : "fadr[1]",
					"viewvisibility" : 1
				}

			}
, 			{
				"box" : 				{
					"id" : "obj-52",
					"maxclass" : "newobj",
					"numinlets" : 1,
					"numoutlets" : 1,
					"outlettype" : [ "" ],
					"patching_rect" : [ 584.0, 971.0, 172.0, 22.0 ],
					"text" : "pattrforward bp.Flanger:Regen"
				}

			}
, 			{
				"box" : 				{
					"annotation" : "## Convert R, G, and B video components to VIZZIE data ##",
					"bgmode" : 1,
					"border" : 0,
					"clickthrough" : 0,
					"enablehscroll" : 0,
					"enablevscroll" : 0,
					"id" : "obj-31",
					"lockeddragscroll" : 0,
					"lockedsize" : 0,
					"maxclass" : "bpatcher",
					"name" : "vz.analyzr.maxpat",
					"numinlets" : 5,
					"numoutlets" : 3,
					"offset" : [ 0.0, 0.0 ],
					"outlettype" : [ "", "", "" ],
					"patching_rect" : [ 1296.27328497171402, 1541.614898562431335, 208.0, 113.0 ],
					"prototypename" : "pixl",
					"varname" : "analyzr",
					"viewvisibility" : 1
				}

			}
, 			{
				"box" : 				{
					"annotation" : "## Change a video's brightness/contrast/saturation ##",
					"bgmode" : 1,
					"border" : 0,
					"clickthrough" : 0,
					"enablehscroll" : 0,
					"enablevscroll" : 0,
					"id" : "obj-37",
					"lockeddragscroll" : 0,
					"lockedsize" : 0,
					"maxclass" : "bpatcher",
					"name" : "vz.brcosr.maxpat",
					"numinlets" : 7,
					"numoutlets" : 1,
					"offset" : [ 0.0, 0.0 ],
					"outlettype" : [ "jit_gl_texture" ],
					"patching_rect" : [ 1129.0, 1195.0, 208.0, 130.0 ],
					"prototypename" : "pixl",
					"varname" : "brcosr",
					"viewvisibility" : 1
				}

			}
, 			{
				"box" : 				{
					"annotation" : "## Convert BEAP module output (control voltages/MIDI) to VIZZIE data ##",
					"bgmode" : 1,
					"border" : 0,
					"clickthrough" : 0,
					"enablehscroll" : 0,
					"enablevscroll" : 0,
					"id" : "obj-38",
					"lockeddragscroll" : 0,
					"lockedsize" : 0,
					"maxclass" : "bpatcher",
					"name" : "vz.beapconvertr.maxpat",
					"numinlets" : 2,
					"numoutlets" : 2,
					"offset" : [ 0.0, 0.0 ],
					"outlettype" : [ "", "" ],
					"patching_rect" : [ 1582.608687162399292, 680.745337963104248, 108.0, 78.0 ],
					"prototypename" : "pixl",
					"varname" : "beapconvertr",
					"viewvisibility" : 1
				}

			}
, 			{
				"box" : 				{
					"bgmode" : 0,
					"border" : 0,
					"clickthrough" : 0,
					"enablehscroll" : 0,
					"enablevscroll" : 0,
					"extract" : 1,
					"id" : "obj-43",
					"lockeddragscroll" : 0,
					"lockedsize" : 0,
					"maxclass" : "bpatcher",
					"name" : "bp.CV LFO.maxpat",
					"numinlets" : 2,
					"numoutlets" : 2,
					"offset" : [ 0.0, 0.0 ],
					"outlettype" : [ "signal", "signal" ],
					"patching_rect" : [ 1483.0, 543.0, 214.0, 116.0 ],
					"varname" : "bp.CV LFO",
					"viewvisibility" : 1
				}

			}
, 			{
				"box" : 				{
					"annotation" : "## A chaotic equation-based VIZZIE data generator ##",
					"bgmode" : 1,
					"border" : 0,
					"clickthrough" : 0,
					"enablehscroll" : 0,
					"enablevscroll" : 0,
					"id" : "obj-44",
					"lockeddragscroll" : 0,
					"lockedsize" : 0,
					"maxclass" : "bpatcher",
					"name" : "vz.attractr.maxpat",
					"numinlets" : 2,
					"numoutlets" : 6,
					"offset" : [ 0.0, 0.0 ],
					"outlettype" : [ "", "", "", "", "", "" ],
					"patching_rect" : [ 1170.0, 866.279498517513275, 206.0, 186.0 ],
					"prototypename" : "pixl",
					"varname" : "attractr",
					"viewvisibility" : 1
				}

			}
, 			{
				"box" : 				{
					"annotation" : "## Average VIZZIE input data ##",
					"bgmode" : 1,
					"border" : 0,
					"clickthrough" : 0,
					"enablehscroll" : 0,
					"enablevscroll" : 0,
					"id" : "obj-28",
					"lockeddragscroll" : 0,
					"lockedsize" : 0,
					"maxclass" : "bpatcher",
					"name" : "vz.averagr.maxpat",
					"numinlets" : 2,
					"numoutlets" : 2,
					"offset" : [ 0.0, 0.0 ],
					"outlettype" : [ "", "" ],
					"patching_rect" : [ 1549.0, 126.0, 188.0, 130.0 ],
					"prototypename" : "pixl",
					"varname" : "smoothr",
					"viewvisibility" : 1
				}

			}
, 			{
				"box" : 				{
					"annotation" : "## Fader/UI display for VIZZIE data ##",
					"bgmode" : 1,
					"border" : 0,
					"clickthrough" : 0,
					"enablehscroll" : 0,
					"enablevscroll" : 0,
					"id" : "obj-24",
					"lockeddragscroll" : 0,
					"lockedsize" : 0,
					"maxclass" : "bpatcher",
					"name" : "vz.fadr.maxpat",
					"numinlets" : 1,
					"numoutlets" : 1,
					"offset" : [ 0.0, 0.0 ],
					"outlettype" : [ "" ],
					"patching_rect" : [ 1797.0, 307.0, 84.0, 196.0 ],
					"varname" : "fadr[2]",
					"viewvisibility" : 1
				}

			}
, 			{
				"box" : 				{
					"format" : 6,
					"id" : "obj-2",
					"maxclass" : "flonum",
					"maximum" : 1.0,
					"minimum" : 0.0,
					"numinlets" : 1,
					"numoutlets" : 2,
					"outlettype" : [ "", "bang" ],
					"parameter_enable" : 0,
					"patching_rect" : [ 678.881983935832977, 107.627328872680664, 50.0, 22.0 ]
				}

			}
, 			{
				"box" : 				{
					"id" : "obj-23",
					"maxclass" : "message",
					"numinlets" : 2,
					"numoutlets" : 1,
					"outlettype" : [ "" ],
					"patching_rect" : [ 620.156828999519348, 286.956520199775696, 29.5, 22.0 ],
					"text" : "1"
				}

			}
, 			{
				"box" : 				{
					"format" : 6,
					"id" : "obj-13",
					"maxclass" : "flonum",
					"maximum" : 1.0,
					"minimum" : 0.0,
					"numinlets" : 1,
					"numoutlets" : 2,
					"outlettype" : [ "", "bang" ],
					"parameter_enable" : 0,
					"patching_rect" : [ 614.906828999519348, 107.627328872680664, 50.0, 22.0 ]
				}

			}
, 			{
				"box" : 				{
					"id" : "obj-20",
					"maxclass" : "message",
					"numinlets" : 2,
					"numoutlets" : 1,
					"outlettype" : [ "" ],
					"patching_rect" : [ 614.906828999519348, 187.751552045345306, 99.0, 22.0 ],
					"text" : "selection 1 $1 $2"
				}

			}
, 			{
				"box" : 				{
					"id" : "obj-4",
					"maxclass" : "newobj",
					"numinlets" : 2,
					"numoutlets" : 1,
					"outlettype" : [ "" ],
					"patching_rect" : [ 614.906828999519348, 151.726707518100739, 86.0, 22.0 ],
					"text" : "pak 0. 0."
				}

			}
, 			{
				"box" : 				{
					"bgmode" : 0,
					"border" : 0,
					"clickthrough" : 0,
					"enablehscroll" : 0,
					"enablevscroll" : 0,
					"extract" : 1,
					"id" : "obj-10",
					"lockeddragscroll" : 0,
					"lockedsize" : 0,
					"maxclass" : "bpatcher",
					"name" : "bp.Flanger.maxpat",
					"numinlets" : 1,
					"numoutlets" : 2,
					"offset" : [ 0.0, 0.0 ],
					"outlettype" : [ "signal", "signal" ],
					"patching_rect" : [ 782.608691453933716, 439.0, 190.0, 116.0 ],
					"varname" : "bp.Flanger",
					"viewvisibility" : 1
				}

			}
, 			{
				"box" : 				{
					"id" : "obj-49",
					"maxclass" : "newobj",
					"numinlets" : 2,
					"numoutlets" : 1,
					"outlettype" : [ "float" ],
					"patching_rect" : [ 996.0, 108.0, 39.0, 22.0 ],
					"text" : "/ 100."
				}

			}
, 			{
				"box" : 				{
					"id" : "obj-50",
					"maxclass" : "newobj",
					"numinlets" : 2,
					"numoutlets" : 1,
					"outlettype" : [ "" ],
					"patching_rect" : [ 996.0, 76.0, 73.0, 22.0 ],
					"text" : "random 200"
				}

			}
, 			{
				"box" : 				{
					"id" : "obj-51",
					"maxclass" : "button",
					"numinlets" : 1,
					"numoutlets" : 1,
					"outlettype" : [ "bang" ],
					"parameter_enable" : 0,
					"patching_rect" : [ 1004.0, 32.0, 24.0, 24.0 ],
					"presentation" : 1,
					"presentation_rect" : [ 324.0, 32.0, 135.0, 135.0 ]
				}

			}
, 			{
				"box" : 				{
					"id" : "obj-48",
					"maxclass" : "newobj",
					"numinlets" : 2,
					"numoutlets" : 1,
					"outlettype" : [ "float" ],
					"patching_rect" : [ 872.0, 108.0, 39.0, 22.0 ],
					"text" : "/ 100."
				}

			}
, 			{
				"box" : 				{
					"id" : "obj-47",
					"maxclass" : "newobj",
					"numinlets" : 2,
					"numoutlets" : 1,
					"outlettype" : [ "" ],
					"patching_rect" : [ 872.0, 76.0, 73.0, 22.0 ],
					"text" : "random 200"
				}

			}
, 			{
				"box" : 				{
					"id" : "obj-46",
					"maxclass" : "button",
					"numinlets" : 1,
					"numoutlets" : 1,
					"outlettype" : [ "bang" ],
					"parameter_enable" : 0,
					"patching_rect" : [ 880.0, 32.0, 24.0, 24.0 ],
					"presentation" : 1,
					"presentation_rect" : [ 207.0, 32.0, 135.0, 135.0 ]
				}

			}
, 			{
				"box" : 				{
					"id" : "obj-35",
					"maxclass" : "message",
					"numinlets" : 2,
					"numoutlets" : 1,
					"outlettype" : [ "" ],
					"patching_rect" : [ 988.0, 212.0, 120.0, 22.0 ],
					"text" : "setclip 1 pitchshift $1"
				}

			}
, 			{
				"box" : 				{
					"format" : 6,
					"id" : "obj-36",
					"maxclass" : "flonum",
					"numinlets" : 1,
					"numoutlets" : 2,
					"outlettype" : [ "", "bang" ],
					"parameter_enable" : 0,
					"patching_rect" : [ 996.0, 144.0, 50.0, 22.0 ]
				}

			}
, 			{
				"box" : 				{
					"id" : "obj-39",
					"maxclass" : "toggle",
					"numinlets" : 1,
					"numoutlets" : 1,
					"outlettype" : [ "int" ],
					"parameter_enable" : 0,
					"patching_rect" : [ 728.0, 148.0, 24.0, 24.0 ]
				}

			}
, 			{
				"box" : 				{
					"id" : "obj-40",
					"maxclass" : "message",
					"numinlets" : 2,
					"numoutlets" : 1,
					"outlettype" : [ "" ],
					"patching_rect" : [ 872.0, 180.0, 105.0, 22.0 ],
					"text" : "setclip 1 speed $1"
				}

			}
, 			{
				"box" : 				{
					"format" : 6,
					"id" : "obj-41",
					"maxclass" : "flonum",
					"numinlets" : 1,
					"numoutlets" : 2,
					"outlettype" : [ "", "bang" ],
					"parameter_enable" : 0,
					"patching_rect" : [ 872.0, 144.0, 50.0, 22.0 ]
				}

			}
, 			{
				"box" : 				{
					"id" : "obj-42",
					"maxclass" : "message",
					"numinlets" : 2,
					"numoutlets" : 1,
					"outlettype" : [ "" ],
					"patching_rect" : [ 728.0, 192.0, 131.0, 22.0 ],
					"text" : "setclip 1 timestretch $1"
				}

			}
, 			{
				"box" : 				{
					"basictuning" : 440,
					"clipheight" : 134.0,
					"data" : 					{
						"clips" : [ 							{
								"absolutepath" : "soundorbis - 戦火（7年後で待ってる BGM）~我在7年后等着你（Kyle Xian remix） - Kyle Xian.mp3",
								"filename" : "soundorbis - 戦火（7年後で待ってる BGM）~我在7年后等着你（Kyle Xian remix） - Kyle Xian.mp3",
								"filekind" : "audiofile",
								"id" : "u794009701",
								"selection" : [ 0.0, 0.0 ],
								"loop" : 0,
								"content_state" : 								{
									"pitchshift" : 1.83,
									"speed" : 1.13
								}

							}
 ]
					}
,
					"followglobaltempo" : 0,
					"formantcorrection" : 0,
					"id" : "obj-3",
					"maxclass" : "playlist~",
					"mode" : "basic",
					"numinlets" : 1,
					"numoutlets" : 5,
					"originallength" : [ 0.0, "ticks" ],
					"originaltempo" : 120.0,
					"outlettype" : [ "signal", "signal", "signal", "", "dictionary" ],
					"parameter_enable" : 0,
					"patching_rect" : [ 782.608691453933716, 278.0, 249.0, 135.0 ],
					"pitchcorrection" : 0,
					"pitchshiftcent" : [ 1046 ],
					"presentation" : 1,
					"presentation_rect" : [ 207.0, 163.0, 252.0, 135.0 ],
					"quality" : "basic",
					"timestretch" : [ 0 ]
				}

			}
, 			{
				"box" : 				{
					"annotation" : "## View or monitor video input ##",
					"bgmode" : 1,
					"border" : 0,
					"clickthrough" : 0,
					"enablehscroll" : 0,
					"enablevscroll" : 0,
					"id" : "obj-14",
					"lockeddragscroll" : 0,
					"lockedsize" : 0,
					"maxclass" : "bpatcher",
					"name" : "vz.viewr.maxpat",
					"numinlets" : 1,
					"numoutlets" : 0,
					"offset" : [ 0.0, 0.0 ],
					"patching_rect" : [ 1774.534151971340179, 1261.490676462650299, 240.0, 208.0 ],
					"presentation" : 1,
					"presentation_rect" : [ 456.0, 32.0, 452.0, 391.0 ],
					"prototypename" : "pixl",
					"varname" : "viewr[2]",
					"viewvisibility" : 1
				}

			}
, 			{
				"box" : 				{
					"annotation" : "## Funhouse mirror distortion video effect ##",
					"bgmode" : 1,
					"border" : 0,
					"clickthrough" : 0,
					"enablehscroll" : 0,
					"enablevscroll" : 0,
					"id" : "obj-15",
					"lockeddragscroll" : 0,
					"lockedsize" : 0,
					"maxclass" : "bpatcher",
					"name" : "vz.reflectr.maxpat",
					"numinlets" : 14,
					"numoutlets" : 1,
					"offset" : [ 0.0, 0.0 ],
					"outlettype" : [ "jit_gl_texture" ],
					"patching_rect" : [ 1996.478250443935394, 611.180120944976807, 348.0, 160.0 ],
					"prototypename" : "pixl",
					"varname" : "reflectr",
					"viewvisibility" : 1
				}

			}
, 			{
				"box" : 				{
					"annotation" : "## Smoothly crossfade between two videos and composite them ##",
					"bgmode" : 1,
					"border" : 0,
					"clickthrough" : 0,
					"enablehscroll" : 0,
					"enablevscroll" : 0,
					"id" : "obj-16",
					"lockeddragscroll" : 0,
					"lockedsize" : 0,
					"maxclass" : "bpatcher",
					"name" : "vz.mixfadr.maxpat",
					"numinlets" : 4,
					"numoutlets" : 1,
					"offset" : [ 0.0, 0.0 ],
					"outlettype" : [ "jit_gl_texture" ],
					"patching_rect" : [ 1774.534151971340179, 882.608690917491913, 178.0, 130.0 ],
					"varname" : "mixfadr",
					"viewvisibility" : 1
				}

			}
, 			{
				"box" : 				{
					"annotation" : "## The VIZZIE video player/looper ##",
					"bgmode" : 1,
					"border" : 0,
					"clickthrough" : 0,
					"enablehscroll" : 0,
					"enablevscroll" : 0,
					"id" : "obj-6",
					"lockeddragscroll" : 0,
					"lockedsize" : 0,
					"maxclass" : "bpatcher",
					"name" : "vz.playr.maxpat",
					"numinlets" : 7,
					"numoutlets" : 2,
					"offset" : [ 0.0, 0.0 ],
					"outlettype" : [ "jit_gl_texture", "" ],
					"patching_rect" : [ 1083.850925862789154, 618.012419044971466, 358.0, 158.0 ],
					"prototypename" : "pixl",
					"varname" : "playr",
					"viewvisibility" : 1
				}

			}
, 			{
				"box" : 				{
					"annotation" : "## View or monitor video input ##",
					"bgmode" : 1,
					"border" : 0,
					"clickthrough" : 0,
					"enablehscroll" : 0,
					"enablevscroll" : 0,
					"id" : "obj-17",
					"lockeddragscroll" : 0,
					"lockedsize" : 0,
					"maxclass" : "bpatcher",
					"name" : "vz.viewr.maxpat",
					"numinlets" : 1,
					"numoutlets" : 0,
					"offset" : [ 0.0, 0.0 ],
					"patching_rect" : [ 1996.478250443935394, 855.279498517513275, 240.0, 208.0 ],
					"prototypename" : "pixl",
					"varname" : "viewr[1]",
					"viewvisibility" : 1
				}

			}
, 			{
				"box" : 				{
					"id" : "obj-18",
					"maxclass" : "message",
					"numinlets" : 2,
					"numoutlets" : 1,
					"outlettype" : [ "" ],
					"patching_rect" : [ 1302.0, 372.0, 92.0, 22.0 ],
					"text" : "0.055404"
				}

			}
, 			{
				"box" : 				{
					"annotation" : "## View or monitor video input ##",
					"bgmode" : 1,
					"border" : 0,
					"clickthrough" : 0,
					"enablehscroll" : 0,
					"enablevscroll" : 0,
					"id" : "obj-19",
					"lockeddragscroll" : 0,
					"lockedsize" : 0,
					"maxclass" : "bpatcher",
					"name" : "vz.viewr.maxpat",
					"numinlets" : 1,
					"numoutlets" : 0,
					"offset" : [ 0.0, 0.0 ],
					"patching_rect" : [ 1049.068317353725433, 1541.614898562431335, 240.0, 208.0 ],
					"prototypename" : "pixl",
					"varname" : "viewr",
					"viewvisibility" : 1
				}

			}
, 			{
				"box" : 				{
					"annotation" : "## Convert audio input to VIZZIE data output ##",
					"bgmode" : 1,
					"border" : 0,
					"clickthrough" : 0,
					"enablehscroll" : 0,
					"enablevscroll" : 0,
					"id" : "obj-34",
					"lockeddragscroll" : 0,
					"lockedsize" : 0,
					"maxclass" : "bpatcher",
					"name" : "vz.audio2vizzie.maxpat",
					"numinlets" : 1,
					"numoutlets" : 2,
					"offset" : [ 0.0, 0.0 ],
					"outlettype" : [ "", "" ],
					"patching_rect" : [ 1274.0, 280.0, 120.0, 54.0 ],
					"prototypename" : "pixl",
					"varname" : "audio2vizzie",
					"viewvisibility" : 1
				}

			}
, 			{
				"box" : 				{
					"bgmode" : 0,
					"border" : 0,
					"clickthrough" : 0,
					"enablehscroll" : 0,
					"enablevscroll" : 0,
					"extract" : 1,
					"id" : "obj-1",
					"lockeddragscroll" : 0,
					"lockedsize" : 0,
					"maxclass" : "bpatcher",
					"name" : "bp.Stereo.maxpat",
					"numinlets" : 2,
					"numoutlets" : 0,
					"offset" : [ 0.0, 0.0 ],
					"patching_rect" : [ 804.968939781188965, 803.105585753917694, 148.0, 116.0 ],
					"presentation" : 1,
					"presentation_rect" : [ 83.0, 406.0, 151.0, 113.0 ],
					"varname" : "bp.Stereo",
					"viewvisibility" : 1
				}

			}
 ],
		"lines" : [ 			{
				"patchline" : 				{
					"destination" : [ "obj-1", 1 ],
					"midpoints" : [ 963.108691453933716, 678.552792876958847, 943.468939781188965, 678.552792876958847 ],
					"source" : [ "obj-10", 1 ]
				}

			}
, 			{
				"patchline" : 				{
					"destination" : [ "obj-1", 0 ],
					"midpoints" : [ 792.108691453933716, 678.552792876958847, 814.468939781188965, 678.552792876958847 ],
					"source" : [ "obj-10", 0 ]
				}

			}
, 			{
				"patchline" : 				{
					"destination" : [ "obj-52", 0 ],
					"midpoints" : [ 593.5, 882.121118545532227, 593.5, 882.121118545532227 ],
					"order" : 1,
					"source" : [ "obj-101", 0 ]
				}

			}
, 			{
				"patchline" : 				{
					"destination" : [ "obj-61", 0 ],
					"midpoints" : [ 593.5, 787.40062215924263, 642.5, 787.40062215924263 ],
					"order" : 0,
					"source" : [ "obj-101", 0 ]
				}

			}
, 			{
				"patchline" : 				{
					"destination" : [ "obj-101", 0 ],
					"source" : [ "obj-102", 0 ]
				}

			}
, 			{
				"patchline" : 				{
					"destination" : [ "obj-102", 0 ],
					"midpoints" : [ 547.388195872306824, 598.698754608631134, 593.972046554088593, 598.698754608631134 ],
					"source" : [ "obj-103", 0 ]
				}

			}
, 			{
				"patchline" : 				{
					"destination" : [ "obj-134", 0 ],
					"source" : [ "obj-104", 0 ]
				}

			}
, 			{
				"patchline" : 				{
					"destination" : [ "obj-67", 0 ],
					"source" : [ "obj-109", 0 ]
				}

			}
, 			{
				"patchline" : 				{
					"destination" : [ "obj-103", 0 ],
					"midpoints" : [ 547.5, 529.527949154376984, 547.388195872306824, 529.527949154376984 ],
					"source" : [ "obj-110", 3 ]
				}

			}
, 			{
				"patchline" : 				{
					"destination" : [ "obj-104", 0 ],
					"midpoints" : [ 287.5, 474.164593786001205, 290.5, 474.164593786001205 ],
					"source" : [ "obj-110", 1 ]
				}

			}
, 			{
				"patchline" : 				{
					"destination" : [ "obj-109", 0 ],
					"midpoints" : [ 157.5, 469.027949154376984, 185.5, 469.027949154376984 ],
					"source" : [ "obj-110", 0 ]
				}

			}
, 			{
				"patchline" : 				{
					"destination" : [ "obj-7", 0 ],
					"midpoints" : [ 417.5, 469.027949154376984, 429.5, 469.027949154376984 ],
					"source" : [ "obj-110", 2 ]
				}

			}
, 			{
				"patchline" : 				{
					"destination" : [ "obj-110", 0 ],
					"midpoints" : [ 157.5, 404.5, 157.5, 404.5 ],
					"order" : 0,
					"source" : [ "obj-117", 0 ]
				}

			}
, 			{
				"patchline" : 				{
					"destination" : [ "obj-111", 1 ],
					"midpoints" : [ 157.5, 388.5, 111.5, 388.5 ],
					"order" : 1,
					"source" : [ "obj-117", 0 ]
				}

			}
, 			{
				"patchline" : 				{
					"destination" : [ "obj-32", 0 ],
					"midpoints" : [ 195.5, 266.5, 157.5, 266.5 ],
					"source" : [ "obj-118", 2 ]
				}

			}
, 			{
				"patchline" : 				{
					"destination" : [ "obj-32", 0 ],
					"source" : [ "obj-118", 0 ]
				}

			}
, 			{
				"patchline" : 				{
					"destination" : [ "obj-89", 0 ],
					"source" : [ "obj-12", 0 ]
				}

			}
, 			{
				"patchline" : 				{
					"destination" : [ "obj-127", 0 ],
					"midpoints" : [ 137.5, 154.5, 157.5, 154.5 ],
					"source" : [ "obj-120", 0 ]
				}

			}
, 			{
				"patchline" : 				{
					"destination" : [ "obj-120", 0 ],
					"source" : [ "obj-121", 0 ]
				}

			}
, 			{
				"patchline" : 				{
					"destination" : [ "obj-123", 0 ],
					"source" : [ "obj-121", 1 ]
				}

			}
, 			{
				"patchline" : 				{
					"destination" : [ "obj-121", 0 ],
					"midpoints" : [ 49.5, 67.0, 137.5, 67.0 ],
					"order" : 0,
					"source" : [ "obj-122", 0 ]
				}

			}
, 			{
				"patchline" : 				{
					"destination" : [ "obj-21", 0 ],
					"midpoints" : [ 49.5, 91.0, 77.5, 91.0 ],
					"order" : 1,
					"source" : [ "obj-122", 0 ]
				}

			}
, 			{
				"patchline" : 				{
					"destination" : [ "obj-127", 0 ],
					"midpoints" : [ 213.5, 154.5, 157.5, 154.5 ],
					"source" : [ "obj-123", 0 ]
				}

			}
, 			{
				"patchline" : 				{
					"destination" : [ "obj-127", 0 ],
					"midpoints" : [ 261.5, 154.5, 157.5, 154.5 ],
					"source" : [ "obj-124", 0 ]
				}

			}
, 			{
				"patchline" : 				{
					"destination" : [ "obj-118", 0 ],
					"midpoints" : [ 157.5, 212.5, 157.5, 212.5 ],
					"order" : 0,
					"source" : [ "obj-127", 0 ]
				}

			}
, 			{
				"patchline" : 				{
					"destination" : [ "obj-119", 1 ],
					"midpoints" : [ 157.5, 196.5, 88.5, 196.5 ],
					"order" : 1,
					"source" : [ "obj-127", 0 ]
				}

			}
, 			{
				"patchline" : 				{
					"destination" : [ "obj-4", 0 ],
					"order" : 0,
					"source" : [ "obj-13", 0 ]
				}

			}
, 			{
				"patchline" : 				{
					"destination" : [ "obj-6", 1 ],
					"midpoints" : [ 624.406828999519348, 373.319873958826065, 1149.850925862789154, 373.319873958826065 ],
					"order" : 1,
					"source" : [ "obj-13", 0 ]
				}

			}
, 			{
				"patchline" : 				{
					"destination" : [ "obj-58", 0 ],
					"midpoints" : [ 425.5, 570.0, 556.940991967916489, 570.0, 556.940991967916489, 37.0, 688.381983935832977, 37.0 ],
					"source" : [ "obj-133", 0 ]
				}

			}
, 			{
				"patchline" : 				{
					"destination" : [ "obj-55", 0 ],
					"midpoints" : [ 297.5, 570.0, 460.953414499759674, 570.0, 460.953414499759674, 40.105590045452118, 624.406828999519348, 40.105590045452118 ],
					"source" : [ "obj-134", 0 ]
				}

			}
, 			{
				"patchline" : 				{
					"destination" : [ "obj-144", 0 ],
					"source" : [ "obj-138", 0 ]
				}

			}
, 			{
				"patchline" : 				{
					"destination" : [ "obj-9", 0 ],
					"midpoints" : [ 217.5, 639.0, 424.0, 639.0, 424.0, 229.0, 630.5, 229.0 ],
					"source" : [ "obj-144", 0 ]
				}

			}
, 			{
				"patchline" : 				{
					"destination" : [ "obj-16", 1 ],
					"midpoints" : [ 2005.978250443935394, 826.39440593123436, 1837.034151971340179, 826.39440593123436 ],
					"order" : 0,
					"source" : [ "obj-15", 0 ]
				}

			}
, 			{
				"patchline" : 				{
					"destination" : [ "obj-17", 0 ],
					"midpoints" : [ 2005.978250443935394, 799.996890544891357, 2005.978250443935394, 799.996890544891357 ],
					"order" : 1,
					"source" : [ "obj-15", 0 ]
				}

			}
, 			{
				"patchline" : 				{
					"destination" : [ "obj-14", 0 ],
					"midpoints" : [ 1784.034151971340179, 1136.549683690071106, 1784.034151971340179, 1136.549683690071106 ],
					"order" : 1,
					"source" : [ "obj-16", 0 ]
				}

			}
, 			{
				"patchline" : 				{
					"destination" : [ "obj-78", 0 ],
					"midpoints" : [ 1784.034151971340179, 1056.866454362869263, 1852.978250980377197, 1056.866454362869263 ],
					"order" : 0,
					"source" : [ "obj-16", 0 ]
				}

			}
, 			{
				"patchline" : 				{
					"destination" : [ "obj-4", 1 ],
					"source" : [ "obj-2", 0 ]
				}

			}
, 			{
				"patchline" : 				{
					"destination" : [ "obj-3", 0 ],
					"midpoints" : [ 624.406828999519348, 238.375776022672653, 792.108691453933716, 238.375776022672653 ],
					"source" : [ "obj-20", 0 ]
				}

			}
, 			{
				"patchline" : 				{
					"destination" : [ "obj-127", 0 ],
					"midpoints" : [ 77.5, 154.5, 157.5, 154.5 ],
					"source" : [ "obj-21", 0 ]
				}

			}
, 			{
				"patchline" : 				{
					"destination" : [ "obj-25", 0 ],
					"source" : [ "obj-22", 0 ]
				}

			}
, 			{
				"patchline" : 				{
					"destination" : [ "obj-3", 0 ],
					"midpoints" : [ 629.656828999519348, 318.956520199775696, 710.882760226726532, 318.956520199775696, 710.882760226726532, 267.0, 792.108691453933716, 267.0 ],
					"order" : 0,
					"source" : [ "obj-23", 0 ]
				}

			}
, 			{
				"patchline" : 				{
					"destination" : [ "obj-6", 4 ],
					"midpoints" : [ 629.656828999519348, 429.860246449708939, 1319.350925862789154, 429.860246449708939 ],
					"order" : 1,
					"source" : [ "obj-23", 0 ]
				}

			}
, 			{
				"patchline" : 				{
					"destination" : [ "obj-15", 4 ],
					"midpoints" : [ 1806.5, 549.776394963264465, 2107.20901967470445, 549.776394963264465 ],
					"order" : 2,
					"source" : [ "obj-24", 0 ]
				}

			}
, 			{
				"patchline" : 				{
					"destination" : [ "obj-15", 2 ],
					"midpoints" : [ 1806.5, 549.776394963264465, 2056.59363505932015, 549.776394963264465 ],
					"order" : 3,
					"source" : [ "obj-24", 0 ]
				}

			}
, 			{
				"patchline" : 				{
					"destination" : [ "obj-16", 3 ],
					"order" : 0,
					"source" : [ "obj-24", 0 ]
				}

			}
, 			{
				"patchline" : 				{
					"destination" : [ "obj-16", 2 ],
					"order" : 1,
					"source" : [ "obj-24", 0 ]
				}

			}
, 			{
				"patchline" : 				{
					"destination" : [ "obj-6", 6 ],
					"source" : [ "obj-25", 0 ]
				}

			}
, 			{
				"patchline" : 				{
					"destination" : [ "obj-24", 0 ],
					"source" : [ "obj-28", 0 ]
				}

			}
, 			{
				"patchline" : 				{
					"destination" : [ "obj-10", 0 ],
					"order" : 1,
					"source" : [ "obj-3", 0 ]
				}

			}
, 			{
				"patchline" : 				{
					"destination" : [ "obj-34", 0 ],
					"midpoints" : [ 792.108691453933716, 423.0, 1037.804345726966858, 423.0, 1037.804345726966858, 269.0, 1283.5, 269.0 ],
					"order" : 0,
					"source" : [ "obj-3", 0 ]
				}

			}
, 			{
				"patchline" : 				{
					"destination" : [ "obj-71", 0 ],
					"source" : [ "obj-31", 0 ]
				}

			}
, 			{
				"patchline" : 				{
					"destination" : [ "obj-33", 0 ],
					"source" : [ "obj-32", 0 ]
				}

			}
, 			{
				"patchline" : 				{
					"destination" : [ "obj-117", 0 ],
					"order" : 0,
					"source" : [ "obj-33", 0 ]
				}

			}
, 			{
				"patchline" : 				{
					"destination" : [ "obj-30", 1 ],
					"midpoints" : [ 157.5, 340.5, 121.5, 340.5 ],
					"order" : 1,
					"source" : [ "obj-33", 0 ]
				}

			}
, 			{
				"patchline" : 				{
					"destination" : [ "obj-18", 1 ],
					"order" : 0,
					"source" : [ "obj-34", 1 ]
				}

			}
, 			{
				"patchline" : 				{
					"destination" : [ "obj-28", 0 ],
					"order" : 1,
					"source" : [ "obj-34", 1 ]
				}

			}
, 			{
				"patchline" : 				{
					"destination" : [ "obj-3", 0 ],
					"midpoints" : [ 997.5, 250.5, 792.108691453933716, 250.5 ],
					"source" : [ "obj-35", 0 ]
				}

			}
, 			{
				"patchline" : 				{
					"destination" : [ "obj-35", 0 ],
					"order" : 0,
					"source" : [ "obj-36", 0 ]
				}

			}
, 			{
				"patchline" : 				{
					"destination" : [ "obj-6", 0 ],
					"order" : 1,
					"source" : [ "obj-36", 0 ]
				}

			}
, 			{
				"patchline" : 				{
					"destination" : [ "obj-16", 0 ],
					"midpoints" : [ 1138.5, 1361.763968944549561, 1518.816762089729309, 1361.763968944549561, 1518.816762089729309, 871.608690917491913, 1784.034151971340179, 871.608690917491913 ],
					"order" : 0,
					"source" : [ "obj-37", 0 ]
				}

			}
, 			{
				"patchline" : 				{
					"destination" : [ "obj-19", 0 ],
					"midpoints" : [ 1138.5, 1414.189433753490448, 1058.568317353725433, 1414.189433753490448 ],
					"order" : 2,
					"source" : [ "obj-37", 0 ]
				}

			}
, 			{
				"patchline" : 				{
					"destination" : [ "obj-31", 0 ],
					"midpoints" : [ 1138.5, 1414.189433753490448, 1305.77328497171402, 1414.189433753490448 ],
					"order" : 1,
					"source" : [ "obj-37", 0 ]
				}

			}
, 			{
				"patchline" : 				{
					"destination" : [ "obj-62", 0 ],
					"midpoints" : [ 1592.108687162399292, 966.139746576547623, 1585.5, 966.139746576547623 ],
					"source" : [ "obj-38", 0 ]
				}

			}
, 			{
				"patchline" : 				{
					"destination" : [ "obj-42", 0 ],
					"source" : [ "obj-39", 0 ]
				}

			}
, 			{
				"patchline" : 				{
					"destination" : [ "obj-20", 0 ],
					"source" : [ "obj-4", 0 ]
				}

			}
, 			{
				"patchline" : 				{
					"destination" : [ "obj-3", 0 ],
					"midpoints" : [ 881.5, 234.5, 792.108691453933716, 234.5 ],
					"source" : [ "obj-40", 0 ]
				}

			}
, 			{
				"patchline" : 				{
					"destination" : [ "obj-40", 0 ],
					"order" : 0,
					"source" : [ "obj-41", 0 ]
				}

			}
, 			{
				"patchline" : 				{
					"destination" : [ "obj-6", 0 ],
					"order" : 1,
					"source" : [ "obj-41", 0 ]
				}

			}
, 			{
				"patchline" : 				{
					"destination" : [ "obj-3", 0 ],
					"source" : [ "obj-42", 0 ]
				}

			}
, 			{
				"patchline" : 				{
					"destination" : [ "obj-38", 0 ],
					"midpoints" : [ 1687.5, 667.127325922250748, 1592.108687162399292, 667.127325922250748 ],
					"source" : [ "obj-43", 1 ]
				}

			}
, 			{
				"patchline" : 				{
					"destination" : [ "obj-37", 3 ],
					"source" : [ "obj-44", 2 ]
				}

			}
, 			{
				"patchline" : 				{
					"destination" : [ "obj-37", 2 ],
					"midpoints" : [ 1216.900000000000091, 1116.928569167852402, 1201.5, 1116.928569167852402 ],
					"source" : [ "obj-44", 1 ]
				}

			}
, 			{
				"patchline" : 				{
					"destination" : [ "obj-37", 1 ],
					"midpoints" : [ 1179.5, 1092.810553640127182, 1170.0, 1092.810553640127182 ],
					"source" : [ "obj-44", 0 ]
				}

			}
, 			{
				"patchline" : 				{
					"destination" : [ "obj-47", 0 ],
					"source" : [ "obj-46", 0 ]
				}

			}
, 			{
				"patchline" : 				{
					"destination" : [ "obj-48", 0 ],
					"source" : [ "obj-47", 0 ]
				}

			}
, 			{
				"patchline" : 				{
					"destination" : [ "obj-41", 0 ],
					"source" : [ "obj-48", 0 ]
				}

			}
, 			{
				"patchline" : 				{
					"destination" : [ "obj-36", 0 ],
					"source" : [ "obj-49", 0 ]
				}

			}
, 			{
				"patchline" : 				{
					"destination" : [ "obj-49", 0 ],
					"source" : [ "obj-50", 0 ]
				}

			}
, 			{
				"patchline" : 				{
					"destination" : [ "obj-50", 0 ],
					"source" : [ "obj-51", 0 ]
				}

			}
, 			{
				"patchline" : 				{
					"destination" : [ "obj-13", 0 ],
					"order" : 1,
					"source" : [ "obj-55", 0 ]
				}

			}
, 			{
				"patchline" : 				{
					"destination" : [ "obj-4", 0 ],
					"order" : 0,
					"source" : [ "obj-55", 0 ]
				}

			}
, 			{
				"patchline" : 				{
					"destination" : [ "obj-2", 0 ],
					"source" : [ "obj-58", 0 ]
				}

			}
, 			{
				"patchline" : 				{
					"destination" : [ "obj-15", 0 ],
					"midpoints" : [ 1093.350925862789154, 827.627325654029846, 1732.481357216835022, 827.627325654029846, 1732.481357216835022, 610.322977781295776, 2005.978250443935394, 610.322977781295776 ],
					"order" : 1,
					"source" : [ "obj-6", 0 ]
				}

			}
, 			{
				"patchline" : 				{
					"destination" : [ "obj-37", 0 ],
					"midpoints" : [ 1093.350925862789154, 1133.158379435539246, 1138.5, 1133.158379435539246 ],
					"order" : 0,
					"source" : [ "obj-6", 0 ]
				}

			}
, 			{
				"patchline" : 				{
					"destination" : [ "obj-60", 0 ],
					"midpoints" : [ 642.5, 874.667702436447144, 642.5, 874.667702436447144 ],
					"source" : [ "obj-61", 0 ]
				}

			}
, 			{
				"patchline" : 				{
					"destination" : [ "obj-59", 0 ],
					"source" : [ "obj-62", 0 ]
				}

			}
, 			{
				"patchline" : 				{
					"destination" : [ "obj-125", 0 ],
					"order" : 1,
					"source" : [ "obj-67", 0 ]
				}

			}
, 			{
				"patchline" : 				{
					"destination" : [ "obj-138", 0 ],
					"order" : 0,
					"source" : [ "obj-67", 0 ]
				}

			}
, 			{
				"patchline" : 				{
					"destination" : [ "obj-69", 0 ],
					"source" : [ "obj-68", 0 ]
				}

			}
, 			{
				"patchline" : 				{
					"destination" : [ "obj-65", 0 ],
					"source" : [ "obj-69", 0 ]
				}

			}
, 			{
				"patchline" : 				{
					"destination" : [ "obj-133", 0 ],
					"midpoints" : [ 429.5, 522.5, 425.5, 522.5 ],
					"source" : [ "obj-7", 0 ]
				}

			}
, 			{
				"patchline" : 				{
					"destination" : [ "obj-6", 0 ],
					"source" : [ "obj-70", 0 ]
				}

			}
, 			{
				"patchline" : 				{
					"destination" : [ "obj-72", 0 ],
					"source" : [ "obj-71", 0 ]
				}

			}
, 			{
				"patchline" : 				{
					"destination" : [ "obj-102", 1 ],
					"midpoints" : [ 571.5, 568.400619477033615, 610.772046554088547, 568.400619477033615 ],
					"source" : [ "obj-75", 0 ]
				}

			}
, 			{
				"patchline" : 				{
					"destination" : [ "obj-102", 2 ],
					"midpoints" : [ 626.5, 568.400619477033615, 627.572046554088615, 568.400619477033615 ],
					"source" : [ "obj-76", 0 ]
				}

			}
, 			{
				"patchline" : 				{
					"destination" : [ "obj-84", 1 ],
					"source" : [ "obj-83", 0 ]
				}

			}
, 			{
				"patchline" : 				{
					"destination" : [ "obj-36", 0 ],
					"order" : 1,
					"source" : [ "obj-84", 0 ]
				}

			}
, 			{
				"patchline" : 				{
					"destination" : [ "obj-41", 0 ],
					"order" : 2,
					"source" : [ "obj-84", 0 ]
				}

			}
, 			{
				"patchline" : 				{
					"destination" : [ "obj-70", 0 ],
					"order" : 0,
					"source" : [ "obj-84", 0 ]
				}

			}
, 			{
				"patchline" : 				{
					"destination" : [ "obj-84", 0 ],
					"source" : [ "obj-89", 0 ]
				}

			}
, 			{
				"patchline" : 				{
					"destination" : [ "obj-23", 0 ],
					"midpoints" : [ 630.5, 273.5, 629.656828999519348, 273.5 ],
					"source" : [ "obj-9", 0 ]
				}

			}
 ],
		"parameters" : 		{
			"obj-10::obj-1" : [ "Width", "Width", 0 ],
			"obj-10::obj-2" : [ "Rate", "Rate", 0 ],
			"obj-10::obj-23" : [ "bypass[1]", "bypass", 0 ],
			"obj-10::obj-28" : [ "Center", "Center", 0 ],
			"obj-10::obj-3" : [ "Regen[1]", "Regen", 0 ],
			"obj-14::obj-20" : [ "letterbox_menu[2]", "letterbox_menu", 0 ],
			"obj-14::obj-37" : [ "aspect_menu[2]", "aspect_menu", 0 ],
			"obj-15::obj-100" : [ "range[17]", "range", 0 ],
			"obj-15::obj-104" : [ "pictctrl[11]", "pictctrl[1]", 0 ],
			"obj-15::obj-119" : [ "Zoom", "Zoom", 0 ],
			"obj-15::obj-120" : [ "range", "range", 1 ],
			"obj-15::obj-125" : [ "pictctrl[6]", "pictctrl[1]", 0 ],
			"obj-15::obj-126" : [ "pictctrl[5]", "pictctrl[1]", 0 ],
			"obj-15::obj-128" : [ "range[1]", "range", 1 ],
			"obj-15::obj-13" : [ "Y center", "Y center", 0 ],
			"obj-15::obj-14" : [ "X center", "X center", 0 ],
			"obj-15::obj-141" : [ "range[2]", "range", 1 ],
			"obj-15::obj-148" : [ "pictctrl[43]", "pictctrl[1]", 0 ],
			"obj-15::obj-149" : [ "pictctrl[42]", "pictctrl[1]", 0 ],
			"obj-15::obj-150" : [ "pictctrl[28]", "pictctrl[1]", 0 ],
			"obj-15::obj-151" : [ "pictctrl[27]", "pictctrl[1]", 0 ],
			"obj-15::obj-30" : [ "Toggle tan warp", "Toggle tan warp", 0 ],
			"obj-15::obj-31" : [ "Mode", "Mode", 0 ],
			"obj-15::obj-32" : [ "Toggle cos warp", "Toggle cos warp", 0 ],
			"obj-15::obj-34" : [ "sin warp[1]", "Sin warp", 0 ],
			"obj-15::obj-35" : [ "Sin warp", "Sin warp", 0 ],
			"obj-15::obj-36" : [ "Cos warp", "Cos warp", 0 ],
			"obj-15::obj-37" : [ "cos warp[2]", "Cos warp", 0 ],
			"obj-15::obj-40" : [ "Toggle sine warp", "Toggle sine warp", 0 ],
			"obj-15::obj-47" : [ "pictctrl[8]", "pictctrl[1]", 0 ],
			"obj-15::obj-50" : [ "pictctrl[9]", "pictctrl[1]", 0 ],
			"obj-15::obj-54" : [ "tan warp[2]", "Tan warp", 0 ],
			"obj-15::obj-55" : [ "Tan warp", "Tan warp", 0 ],
			"obj-15::obj-65" : [ "pictctrl[10]", "pictctrl[1]", 0 ],
			"obj-15::obj-74" : [ "pictctrl[36]", "pictctrl[1]", 0 ],
			"obj-15::obj-79" : [ "pictctrl[37]", "pictctrl[1]", 0 ],
			"obj-15::obj-8" : [ "pictctrl[35]", "pictctrl[1]", 0 ],
			"obj-15::obj-96::obj-23" : [ "gswitch2[4]", "gswitch2", 0 ],
			"obj-16::obj-17::obj-23" : [ "gswitch2[3]", "gswitch2", 0 ],
			"obj-16::obj-21" : [ "range[19]", "range", 0 ],
			"obj-16::obj-24" : [ "pictctrl[98]", "pictctrl[1]", 0 ],
			"obj-16::obj-26" : [ "Crossfade", "Crossfade", 0 ],
			"obj-16::obj-39" : [ "Operator mode", "Operator mode", 0 ],
			"obj-16::obj-51" : [ "pictctrl[47]", "pictctrl[1]", 0 ],
			"obj-16::obj-56::obj-23" : [ "gswitch2[2]", "gswitch2", 0 ],
			"obj-17::obj-20" : [ "letterbox_menu[1]", "letterbox_menu", 0 ],
			"obj-17::obj-37" : [ "aspect_menu[1]", "aspect_menu", 0 ],
			"obj-19::obj-20" : [ "letterbox_menu", "letterbox_menu", 0 ],
			"obj-19::obj-37" : [ "aspect_menu", "aspect_menu", 0 ],
			"obj-1::obj-22" : [ "Mute", "Mute", 0 ],
			"obj-1::obj-52" : [ "Level", "Level", 0 ],
			"obj-1::obj-55" : [ "DSP", "DSP", 0 ],
			"obj-1::obj-56" : [ "OutputChannel", "OutputChannel", 0 ],
			"obj-24::obj-11" : [ "pictctrl[29]", "pictctrl[1]", 0 ],
			"obj-24::obj-16" : [ "pictctrl[21]", "pictctrl[1]", 0 ],
			"obj-24::obj-51" : [ "pictctrl[20]", "pictctrl[1]", 0 ],
			"obj-24::obj-9" : [ "Fader[2]", "Fader", 0 ],
			"obj-28::obj-10" : [ "range[8]", "range", 0 ],
			"obj-28::obj-12" : [ "pictctrl[48]", "pictctrl", 0 ],
			"obj-28::obj-15" : [ "pictctrl[41]", "pictctrl[2]", 0 ],
			"obj-28::obj-37" : [ "smoothing[4]", "Smoothing", 0 ],
			"obj-28::obj-5" : [ "pictctrl[12]", "pictctrl[1]", 0 ],
			"obj-28::obj-51" : [ "pictctrl[44]", "pictctrl[2]", 0 ],
			"obj-31::obj-1" : [ "textbutton[2]", "textbutton[1]", 0 ],
			"obj-31::obj-17" : [ "pictctrl[54]", "pictctrl[1]", 0 ],
			"obj-31::obj-19" : [ "pictctrl[58]", "pictctrl[1]", 0 ],
			"obj-31::obj-2::obj-23" : [ "gswitch2[8]", "gswitch2", 0 ],
			"obj-31::obj-44" : [ "Red mode", "Red mode", 0 ],
			"obj-31::obj-46" : [ "pictctrl[57]", "pictctrl[1]", 0 ],
			"obj-31::obj-48" : [ "Green mode", "Green mode", 0 ],
			"obj-31::obj-50" : [ "pictctrl[59]", "pictctrl[1]", 0 ],
			"obj-31::obj-54" : [ "Blue mode", "Blue mode", 0 ],
			"obj-31::obj-58" : [ "pictctrl[56]", "pictctrl[1]", 0 ],
			"obj-31::obj-6" : [ "pictctrl[55]", "pictctrl[1]", 0 ],
			"obj-31::obj-65" : [ "pictctrl[84]", "pictctrl[1]", 0 ],
			"obj-34::obj-11" : [ "pictctrl[2]", "pictctrl[1]", 0 ],
			"obj-34::obj-14" : [ "pictctrl[1]", "pictctrl[1]", 0 ],
			"obj-34::obj-22" : [ "range[3]", "range", 0 ],
			"obj-37::obj-104" : [ "pictctrl[16]", "pictctrl[1]", 0 ],
			"obj-37::obj-119" : [ "Brightness", "Brightness", 0 ],
			"obj-37::obj-120" : [ "Brightness range", "Brightness range", 1 ],
			"obj-37::obj-121" : [ "Offset[2]", "Brightness", 0 ],
			"obj-37::obj-127" : [ "Contrast", "Contrast", 0 ],
			"obj-37::obj-128" : [ "Contrast range", "Contrast range", 1 ],
			"obj-37::obj-129" : [ "contrast", "Contrast", 0 ],
			"obj-37::obj-140" : [ "Saturation", "Saturation", 0 ],
			"obj-37::obj-141" : [ "Saturation range", "Saturation range", 1 ],
			"obj-37::obj-142" : [ "saturation[1]", "Saturation", 0 ],
			"obj-37::obj-147" : [ "pictctrl[15]", "pictctrl[1]", 0 ],
			"obj-37::obj-148" : [ "pictctrl[24]", "pictctrl[1]", 0 ],
			"obj-37::obj-149" : [ "pictctrl[50]", "pictctrl[1]", 0 ],
			"obj-37::obj-150" : [ "pictctrl[17]", "pictctrl[1]", 0 ],
			"obj-37::obj-151" : [ "pictctrl[38]", "pictctrl[1]", 0 ],
			"obj-37::obj-56::obj-23" : [ "gswitch2[6]", "gswitch2", 0 ],
			"obj-37::obj-6" : [ "range[5]", "range", 0 ],
			"obj-38::obj-39" : [ "pictctrl[34]", "pictctrl[1]", 0 ],
			"obj-38::obj-6" : [ "pictctrl[31]", "pictctrl[1]", 0 ],
			"obj-38::obj-64" : [ "umenu[4]", "umenu", 0 ],
			"obj-43::obj-12" : [ "Mute[1]", "Mute", 0 ],
			"obj-43::obj-144" : [ "Phase", "Phase", 0 ],
			"obj-43::obj-70" : [ "Amt", "CV Amt", 0 ],
			"obj-43::obj-74" : [ "SyncRate", "Rate", 0 ],
			"obj-43::obj-75" : [ "Shape", "Shape", 0 ],
			"obj-43::obj-81" : [ "Phase-Inversion", "Phase-Inversion", 1 ],
			"obj-43::obj-88" : [ "Time Mode", "Time Mode", 1 ],
			"obj-43::obj-89" : [ "FreqRate", "Rate", 0 ],
			"obj-43::obj-94" : [ "Re-Trigger", "Re-Trigger", 0 ],
			"obj-44::obj-127" : [ "pictctrl[49]", "pictctrl[1]", 0 ],
			"obj-44::obj-138" : [ "pictctrl[13]", "pictctrl[1]", 0 ],
			"obj-44::obj-140" : [ "pictctrl[23]", "pictctrl[1]", 0 ],
			"obj-44::obj-142" : [ "pictctrl[30]", "pictctrl[1]", 0 ],
			"obj-44::obj-144" : [ "pictctrl[7]", "pictctrl[1]", 0 ],
			"obj-44::obj-15" : [ "pictctrl[52]", "pictctrl[1]", 0 ],
			"obj-44::obj-28" : [ "Rate[1]", "Rate", 0 ],
			"obj-44::obj-33" : [ "pictctrl[22]", "pictctrl[1]", 0 ],
			"obj-44::obj-7" : [ "textbutton[1]", "textbutton[1]", 0 ],
			"obj-44::obj-8" : [ "pictctrl[14]", "pictctrl[1]", 0 ],
			"obj-44::obj-86" : [ "FreqMode[2]", "FreqMode", 0 ],
			"obj-59::obj-11" : [ "pictctrl[78]", "pictctrl[1]", 0 ],
			"obj-59::obj-16" : [ "pictctrl[75]", "pictctrl[1]", 0 ],
			"obj-59::obj-51" : [ "pictctrl[79]", "pictctrl[1]", 0 ],
			"obj-59::obj-9" : [ "Fader", "Fader", 0 ],
			"obj-62::obj-10" : [ "range[20]", "range", 0 ],
			"obj-62::obj-12" : [ "pictctrl[76]", "pictctrl", 0 ],
			"obj-62::obj-15" : [ "pictctrl[80]", "pictctrl[2]", 0 ],
			"obj-62::obj-37" : [ "smoothing[1]", "Smoothing", 0 ],
			"obj-62::obj-5" : [ "pictctrl[81]", "pictctrl[1]", 0 ],
			"obj-62::obj-51" : [ "pictctrl[77]", "pictctrl[2]", 0 ],
			"obj-6::obj-10" : [ "pictctrl[3]", "pictctrl[1]", 0 ],
			"obj-6::obj-112::obj-119" : [ "Speed high", "Speed high", 0 ],
			"obj-6::obj-112::obj-120" : [ "Rate range", "Rate range", 0 ],
			"obj-6::obj-112::obj-121" : [ "Speed low", "Speed low", 0 ],
			"obj-6::obj-112::obj-16" : [ "Playback range", "Playback range", 0 ],
			"obj-6::obj-112::obj-40" : [ "Playback controls", "Playback controls", 0 ],
			"obj-6::obj-112::obj-79" : [ "Playback position", "Playback position", 0 ],
			"obj-6::obj-112::obj-89" : [ "Reset range", "Reset range", 0 ],
			"obj-6::obj-112::obj-92" : [ "Reset speed", "Reset speed", 0 ],
			"obj-6::obj-20" : [ "pictctrl[4]", "pictctrl[1]", 0 ],
			"obj-6::obj-28" : [ "pictctrl[279]", "pictctrl[1]", 0 ],
			"obj-6::obj-40" : [ "pictctrl[283]", "pictctrl[1]", 0 ],
			"obj-6::obj-51" : [ "moviepath", "moviepath", 0 ],
			"obj-6::obj-60" : [ "pictctrl[282]", "pictctrl[1]", 0 ],
			"obj-6::obj-64" : [ "pictctrl[284]", "pictctrl[1]", 0 ],
			"obj-6::obj-81" : [ "pictctrl[281]", "pictctrl[1]", 0 ],
			"obj-6::obj-83" : [ "pictctrl[280]", "pictctrl[1]", 0 ],
			"obj-6::obj-89" : [ "moviename", "moviename", 0 ],
			"obj-71::obj-10" : [ "range[21]", "range", 0 ],
			"obj-71::obj-12" : [ "pictctrl[99]", "pictctrl", 0 ],
			"obj-71::obj-15" : [ "pictctrl[86]", "pictctrl[2]", 0 ],
			"obj-71::obj-37" : [ "smoothing[2]", "Smoothing", 0 ],
			"obj-71::obj-5" : [ "pictctrl[87]", "pictctrl[1]", 0 ],
			"obj-71::obj-51" : [ "pictctrl[100]", "pictctrl[2]", 0 ],
			"obj-72::obj-11" : [ "pictctrl[85]", "pictctrl[1]", 0 ],
			"obj-72::obj-16" : [ "pictctrl[60]", "pictctrl[1]", 0 ],
			"obj-72::obj-51" : [ "pictctrl[82]", "pictctrl[1]", 0 ],
			"obj-72::obj-9" : [ "Fader[3]", "Fader", 0 ],
			"obj-78::obj-12" : [ "Fullscreen", "Fullscreen", 0 ],
			"obj-78::obj-16" : [ "Toggle display", "Toggle display", 0 ],
			"obj-78::obj-1::obj-23" : [ "gswitch2[9]", "gswitch2", 0 ],
			"obj-78::obj-2" : [ "pictctrl[101]", "pictctrl[1]", 0 ],
			"obj-78::obj-3" : [ "toggle", "toggle", 0 ],
			"obj-78::obj-41" : [ "pictctrl[102]", "pictctrl[1]", 0 ],
			"obj-78::obj-50" : [ "pictctrl[88]", "pictctrl[1]", 0 ],
			"obj-78::obj-6" : [ "live.toggle[1]", "live.toggle", 0 ],
			"parameterbanks" : 			{

			}
,
			"parameter_overrides" : 			{
				"obj-10::obj-23" : 				{
					"parameter_longname" : "bypass[1]"
				}
,
				"obj-10::obj-3" : 				{
					"parameter_longname" : "Regen[1]"
				}
,
				"obj-14::obj-20" : 				{
					"parameter_longname" : "letterbox_menu[2]"
				}
,
				"obj-14::obj-37" : 				{
					"parameter_longname" : "aspect_menu[2]"
				}
,
				"obj-15::obj-125" : 				{
					"parameter_longname" : "pictctrl[6]"
				}
,
				"obj-17::obj-20" : 				{
					"parameter_longname" : "letterbox_menu[1]"
				}
,
				"obj-17::obj-37" : 				{
					"parameter_longname" : "aspect_menu[1]"
				}
,
				"obj-24::obj-16" : 				{
					"parameter_longname" : "pictctrl[21]"
				}
,
				"obj-24::obj-51" : 				{
					"parameter_longname" : "pictctrl[20]"
				}
,
				"obj-24::obj-9" : 				{
					"parameter_longname" : "Fader[2]"
				}
,
				"obj-28::obj-12" : 				{
					"parameter_longname" : "pictctrl[48]"
				}
,
				"obj-28::obj-5" : 				{
					"parameter_longname" : "pictctrl[12]"
				}
,
				"obj-28::obj-51" : 				{
					"parameter_longname" : "pictctrl[44]"
				}
,
				"obj-31::obj-17" : 				{
					"parameter_longname" : "pictctrl[54]"
				}
,
				"obj-31::obj-19" : 				{
					"parameter_longname" : "pictctrl[58]"
				}
,
				"obj-31::obj-46" : 				{
					"parameter_longname" : "pictctrl[57]"
				}
,
				"obj-31::obj-50" : 				{
					"parameter_longname" : "pictctrl[59]"
				}
,
				"obj-31::obj-58" : 				{
					"parameter_longname" : "pictctrl[56]"
				}
,
				"obj-31::obj-6" : 				{
					"parameter_longname" : "pictctrl[55]"
				}
,
				"obj-37::obj-104" : 				{
					"parameter_longname" : "pictctrl[16]"
				}
,
				"obj-37::obj-147" : 				{
					"parameter_longname" : "pictctrl[15]"
				}
,
				"obj-37::obj-148" : 				{
					"parameter_longname" : "pictctrl[24]"
				}
,
				"obj-37::obj-149" : 				{
					"parameter_longname" : "pictctrl[50]"
				}
,
				"obj-37::obj-150" : 				{
					"parameter_longname" : "pictctrl[17]"
				}
,
				"obj-37::obj-151" : 				{
					"parameter_longname" : "pictctrl[38]"
				}
,
				"obj-38::obj-6" : 				{
					"parameter_longname" : "pictctrl[31]"
				}
,
				"obj-43::obj-12" : 				{
					"parameter_longname" : "Mute[1]"
				}
,
				"obj-44::obj-127" : 				{
					"parameter_longname" : "pictctrl[49]"
				}
,
				"obj-44::obj-138" : 				{
					"parameter_longname" : "pictctrl[13]"
				}
,
				"obj-44::obj-140" : 				{
					"parameter_longname" : "pictctrl[23]"
				}
,
				"obj-44::obj-142" : 				{
					"parameter_longname" : "pictctrl[30]"
				}
,
				"obj-44::obj-144" : 				{
					"parameter_longname" : "pictctrl[7]"
				}
,
				"obj-44::obj-28" : 				{
					"parameter_longname" : "Rate[1]"
				}
,
				"obj-44::obj-33" : 				{
					"parameter_longname" : "pictctrl[22]"
				}
,
				"obj-44::obj-8" : 				{
					"parameter_longname" : "pictctrl[14]"
				}
,
				"obj-59::obj-16" : 				{
					"parameter_longname" : "pictctrl[75]"
				}
,
				"obj-59::obj-51" : 				{
					"parameter_longname" : "pictctrl[79]"
				}
,
				"obj-59::obj-9" : 				{
					"parameter_longname" : "Fader"
				}
,
				"obj-62::obj-12" : 				{
					"parameter_longname" : "pictctrl[76]"
				}
,
				"obj-62::obj-15" : 				{
					"parameter_longname" : "pictctrl[80]"
				}
,
				"obj-62::obj-37" : 				{
					"parameter_longname" : "smoothing[1]"
				}
,
				"obj-62::obj-5" : 				{
					"parameter_longname" : "pictctrl[81]"
				}
,
				"obj-62::obj-51" : 				{
					"parameter_longname" : "pictctrl[77]"
				}
,
				"obj-6::obj-10" : 				{
					"parameter_longname" : "pictctrl[3]"
				}
,
				"obj-6::obj-20" : 				{
					"parameter_longname" : "pictctrl[4]"
				}
,
				"obj-71::obj-12" : 				{
					"parameter_longname" : "pictctrl[99]"
				}
,
				"obj-71::obj-15" : 				{
					"parameter_longname" : "pictctrl[86]"
				}
,
				"obj-71::obj-37" : 				{
					"parameter_longname" : "smoothing[2]"
				}
,
				"obj-71::obj-5" : 				{
					"parameter_longname" : "pictctrl[87]"
				}
,
				"obj-71::obj-51" : 				{
					"parameter_longname" : "pictctrl[100]"
				}
,
				"obj-72::obj-16" : 				{
					"parameter_longname" : "pictctrl[60]"
				}
,
				"obj-72::obj-51" : 				{
					"parameter_longname" : "pictctrl[82]"
				}
,
				"obj-72::obj-9" : 				{
					"parameter_longname" : "Fader[3]"
				}
,
				"obj-78::obj-2" : 				{
					"parameter_longname" : "pictctrl[101]"
				}
,
				"obj-78::obj-41" : 				{
					"parameter_longname" : "pictctrl[102]"
				}
,
				"obj-78::obj-50" : 				{
					"parameter_longname" : "pictctrl[88]"
				}

			}
,
			"inherited_shortname" : 1
		}
,
		"dependency_cache" : [ 			{
				"name" : "bp.CV LFO.maxpat",
				"bootpath" : "~/Documents/MAX-MSP2024_Spring/Zixiao-MAX-MSP-2024-Spring/Assignment-4-AV-Loop/loop/patchers",
				"patcherrelativepath" : ".",
				"type" : "JSON",
				"implicit" : 1
			}
, 			{
				"name" : "bp.Flanger.maxpat",
				"bootpath" : "~/Documents/MAX-MSP2024_Spring/Zixiao-MAX-MSP-2024-Spring/Assignment-4-AV-Loop/loop/patchers",
				"patcherrelativepath" : ".",
				"type" : "JSON",
				"implicit" : 1
			}
, 			{
				"name" : "bp.Stereo.maxpat",
				"bootpath" : "~/Documents/MAX-MSP2024_Spring/Zixiao-MAX-MSP-2024-Spring/Assignment-4-AV-Loop/loop/patchers",
				"patcherrelativepath" : ".",
				"type" : "JSON",
				"implicit" : 1
			}
, 			{
				"name" : "brcosa.genjit",
				"bootpath" : "~/Documents/MAX-MSP2024_Spring/Zixiao-MAX-MSP-2024-Spring/Assignment-4-AV-Loop/loop/code",
				"patcherrelativepath" : "../code",
				"type" : "gJIT",
				"implicit" : 1
			}
, 			{
				"name" : "data-handler-L.maxpat",
				"bootpath" : "~/Documents/MAX-MSP2024_Spring/Zixiao-MAX-MSP-2024-Spring/Assignment-4-AV-Loop/loop/patchers",
				"patcherrelativepath" : ".",
				"type" : "JSON",
				"implicit" : 1
			}
, 			{
				"name" : "data-handler.maxpat",
				"bootpath" : "~/Documents/MAX-MSP2024_Spring/Zixiao-MAX-MSP-2024-Spring/Assignment-4-AV-Loop/loop/patchers",
				"patcherrelativepath" : ".",
				"type" : "JSON",
				"implicit" : 1
			}
, 			{
				"name" : "data_smoother.maxpat",
				"bootpath" : "~/Documents/MAX-MSP2024_Spring/Zixiao-MAX-MSP-2024-Spring/Assignment-4-AV-Loop/loop/patchers",
				"patcherrelativepath" : ".",
				"type" : "JSON",
				"implicit" : 1
			}
, 			{
				"name" : "exact_menu.maxpat",
				"bootpath" : "~/Documents/MAX-MSP2024_Spring/Zixiao-MAX-MSP-2024-Spring/Assignment-4-AV-Loop/loop/patchers",
				"patcherrelativepath" : ".",
				"type" : "JSON",
				"implicit" : 1
			}
, 			{
				"name" : "lo_hi_UI_control.maxpat",
				"bootpath" : "~/Documents/MAX-MSP2024_Spring/Zixiao-MAX-MSP-2024-Spring/Assignment-4-AV-Loop/loop/patchers",
				"patcherrelativepath" : ".",
				"type" : "JSON",
				"implicit" : 1
			}
, 			{
				"name" : "playr_controls.maxpat",
				"bootpath" : "~/Documents/MAX-MSP2024_Spring/Zixiao-MAX-MSP-2024-Spring/Assignment-4-AV-Loop/loop/patchers",
				"patcherrelativepath" : ".",
				"type" : "JSON",
				"implicit" : 1
			}
, 			{
				"name" : "snapshot_UI.maxpat",
				"bootpath" : "~/Documents/MAX-MSP2024_Spring/Zixiao-MAX-MSP-2024-Spring/Assignment-4-AV-Loop/loop/patchers",
				"patcherrelativepath" : ".",
				"type" : "JSON",
				"implicit" : 1
			}
, 			{
				"name" : "soundorbis - 戦火（7年後で待ってる BGM）~我在7年后等着你（Kyle Xian remix） - Kyle Xian.mp3",
				"bootpath" : "~/Documents/MAX-MSP2024_Spring/Zixiao-MAX-MSP-2024-Spring/Assignment-4-AV-Loop",
				"patcherrelativepath" : "../..",
				"type" : "Mp3",
				"implicit" : 1
			}
, 			{
				"name" : "video-handler.maxpat",
				"bootpath" : "~/Documents/MAX-MSP2024_Spring/Zixiao-MAX-MSP-2024-Spring/Assignment-4-AV-Loop/loop/patchers",
				"patcherrelativepath" : ".",
				"type" : "JSON",
				"implicit" : 1
			}
, 			{
				"name" : "vizzie-datatexconvert.js",
				"bootpath" : "~/Documents/MAX-MSP2024_Spring/Zixiao-MAX-MSP-2024-Spring/Assignment-4-AV-Loop/loop/code",
				"patcherrelativepath" : "../code",
				"type" : "TEXT",
				"implicit" : 1
			}
, 			{
				"name" : "vizzie-global.js",
				"bootpath" : "~/Documents/MAX-MSP2024_Spring/Zixiao-MAX-MSP-2024-Spring/Assignment-4-AV-Loop/loop/code",
				"patcherrelativepath" : "../code",
				"type" : "TEXT",
				"implicit" : 1
			}
, 			{
				"name" : "vz.analyzr.maxpat",
				"bootpath" : "~/Documents/MAX-MSP2024_Spring/Zixiao-MAX-MSP-2024-Spring/Assignment-4-AV-Loop/loop/patchers",
				"patcherrelativepath" : ".",
				"type" : "JSON",
				"implicit" : 1
			}
, 			{
				"name" : "vz.attractr.maxpat",
				"bootpath" : "~/Documents/MAX-MSP2024_Spring/Zixiao-MAX-MSP-2024-Spring/Assignment-4-AV-Loop/loop/patchers",
				"patcherrelativepath" : ".",
				"type" : "JSON",
				"implicit" : 1
			}
, 			{
				"name" : "vz.audio2vizzie.maxpat",
				"bootpath" : "~/Documents/MAX-MSP2024_Spring/Zixiao-MAX-MSP-2024-Spring/Assignment-4-AV-Loop/loop/patchers",
				"patcherrelativepath" : ".",
				"type" : "JSON",
				"implicit" : 1
			}
, 			{
				"name" : "vz.averagr.maxpat",
				"bootpath" : "~/Documents/MAX-MSP2024_Spring/Zixiao-MAX-MSP-2024-Spring/Assignment-4-AV-Loop/loop/patchers",
				"patcherrelativepath" : ".",
				"type" : "JSON",
				"implicit" : 1
			}
, 			{
				"name" : "vz.beapconvertr.maxpat",
				"bootpath" : "~/Documents/MAX-MSP2024_Spring/Zixiao-MAX-MSP-2024-Spring/Assignment-4-AV-Loop/loop/patchers",
				"patcherrelativepath" : ".",
				"type" : "JSON",
				"implicit" : 1
			}
, 			{
				"name" : "vz.brcosr.maxpat",
				"bootpath" : "~/Documents/MAX-MSP2024_Spring/Zixiao-MAX-MSP-2024-Spring/Assignment-4-AV-Loop/loop/patchers",
				"patcherrelativepath" : ".",
				"type" : "JSON",
				"implicit" : 1
			}
, 			{
				"name" : "vz.fadr.maxpat",
				"bootpath" : "~/Documents/MAX-MSP2024_Spring/Zixiao-MAX-MSP-2024-Spring/Assignment-4-AV-Loop/loop/patchers",
				"patcherrelativepath" : ".",
				"type" : "JSON",
				"implicit" : 1
			}
, 			{
				"name" : "vz.mixfadr.maxpat",
				"bootpath" : "~/Documents/MAX-MSP2024_Spring/Zixiao-MAX-MSP-2024-Spring/Assignment-4-AV-Loop/loop/patchers",
				"patcherrelativepath" : ".",
				"type" : "JSON",
				"implicit" : 1
			}
, 			{
				"name" : "vz.playr.maxpat",
				"bootpath" : "~/Documents/MAX-MSP2024_Spring/Zixiao-MAX-MSP-2024-Spring/Assignment-4-AV-Loop/loop/patchers",
				"patcherrelativepath" : ".",
				"type" : "JSON",
				"implicit" : 1
			}
, 			{
				"name" : "vz.projectr.maxpat",
				"bootpath" : "~/Documents/MAX-MSP2024_Spring/Zixiao-MAX-MSP-2024-Spring/Assignment-4-AV-Loop/loop/patchers",
				"patcherrelativepath" : ".",
				"type" : "JSON",
				"implicit" : 1
			}
, 			{
				"name" : "vz.reflectr.maxpat",
				"bootpath" : "~/Documents/MAX-MSP2024_Spring/Zixiao-MAX-MSP-2024-Spring/Assignment-4-AV-Loop/loop/patchers",
				"patcherrelativepath" : ".",
				"type" : "JSON",
				"implicit" : 1
			}
, 			{
				"name" : "vz.viewr.maxpat",
				"bootpath" : "~/Documents/MAX-MSP2024_Spring/Zixiao-MAX-MSP-2024-Spring/Assignment-4-AV-Loop/loop/patchers",
				"patcherrelativepath" : ".",
				"type" : "JSON",
				"implicit" : 1
			}
, 			{
				"name" : "vzgl-blackframe.maxpat",
				"bootpath" : "~/Documents/MAX-MSP2024_Spring/Zixiao-MAX-MSP-2024-Spring/Assignment-4-AV-Loop/loop/patchers",
				"patcherrelativepath" : ".",
				"type" : "JSON",
				"implicit" : 1
			}
, 			{
				"name" : "vzgl-context.maxpat",
				"bootpath" : "~/Documents/MAX-MSP2024_Spring/Zixiao-MAX-MSP-2024-Spring/Assignment-4-AV-Loop/loop/patchers",
				"patcherrelativepath" : ".",
				"type" : "JSON",
				"implicit" : 1
			}
, 			{
				"name" : "vzgl-disable.maxpat",
				"bootpath" : "~/Documents/MAX-MSP2024_Spring/Zixiao-MAX-MSP-2024-Spring/Assignment-4-AV-Loop/loop/patchers",
				"patcherrelativepath" : ".",
				"type" : "JSON",
				"implicit" : 1
			}
, 			{
				"name" : "vzgl-object.maxpat",
				"bootpath" : "~/Documents/MAX-MSP2024_Spring/Zixiao-MAX-MSP-2024-Spring/Assignment-4-AV-Loop/loop/patchers",
				"patcherrelativepath" : ".",
				"type" : "JSON",
				"implicit" : 1
			}
, 			{
				"name" : "vzgl-outputdim.maxpat",
				"bootpath" : "~/Documents/MAX-MSP2024_Spring/Zixiao-MAX-MSP-2024-Spring/Assignment-4-AV-Loop/loop/patchers",
				"patcherrelativepath" : ".",
				"type" : "JSON",
				"implicit" : 1
			}
, 			{
				"name" : "vzgl-pwindow.maxpat",
				"bootpath" : "~/Documents/MAX-MSP2024_Spring/Zixiao-MAX-MSP-2024-Spring/Assignment-4-AV-Loop/loop/patchers",
				"patcherrelativepath" : ".",
				"type" : "JSON",
				"implicit" : 1
			}
, 			{
				"name" : "vzgl-routegl.maxpat",
				"bootpath" : "~/Documents/MAX-MSP2024_Spring/Zixiao-MAX-MSP-2024-Spring/Assignment-4-AV-Loop/loop/patchers",
				"patcherrelativepath" : ".",
				"type" : "JSON",
				"implicit" : 1
			}
, 			{
				"name" : "warpedmirror.genjit",
				"bootpath" : "~/Documents/MAX-MSP2024_Spring/Zixiao-MAX-MSP-2024-Spring/Assignment-4-AV-Loop/loop/code",
				"patcherrelativepath" : "../code",
				"type" : "gJIT",
				"implicit" : 1
			}
, 			{
				"name" : "windowresize.js",
				"bootpath" : "~/Documents/MAX-MSP2024_Spring/Zixiao-MAX-MSP-2024-Spring/Assignment-4-AV-Loop/loop/code",
				"patcherrelativepath" : "../code",
				"type" : "TEXT",
				"implicit" : 1
			}
, 			{
				"name" : "xfade.genjit",
				"bootpath" : "~/Documents/MAX-MSP2024_Spring/Zixiao-MAX-MSP-2024-Spring/Assignment-4-AV-Loop/loop/code",
				"patcherrelativepath" : "../code",
				"type" : "gJIT",
				"implicit" : 1
			}
 ],
		"autosave" : 0
	}

}
